solid OpenSCAD_Model
  facet normal -1 -0 -0
    outer loop
      vertex -20.15 -10 0
      vertex -20.15 -10 33
      vertex -20.15 10 0
    endloop
  endfacet
  facet normal -1 0 0
    outer loop
      vertex -20.15 10 0
      vertex -20.15 -10 33
      vertex -20.15 0 33
    endloop
  endfacet
  facet normal -1 0 0
    outer loop
      vertex -20.15 10 0
      vertex -20.15 0 33
      vertex -20.15 10 33
    endloop
  endfacet
  facet normal 0 -1 0
    outer loop
      vertex -20.15 -10 33
      vertex -20.15 -10 0
      vertex 20.15 -10 0
    endloop
  endfacet
  facet normal 0 -1 0
    outer loop
      vertex 20.15 -10 33
      vertex -20.15 -10 33
      vertex 20.15 -10 0
    endloop
  endfacet
  facet normal -0 -0 -1
    outer loop
      vertex -20.15 -10 0
      vertex -20.15 10 0
      vertex 20.15 -10 0
    endloop
  endfacet
  facet normal 0 0 -1
    outer loop
      vertex 20.15 -10 0
      vertex -20.15 10 0
      vertex 20.15 10 0
    endloop
  endfacet
  facet normal 0 1 0
    outer loop
      vertex -20.15 10 0
      vertex -20.15 10 33
      vertex 20.15 10 0
    endloop
  endfacet
  facet normal 0 1 0
    outer loop
      vertex 20.15 10 0
      vertex -20.15 10 33
      vertex 20.15 10 33
    endloop
  endfacet
  facet normal 0 1 0
    outer loop
      vertex -20.15 10 33
      vertex -17.196 10 33.521
      vertex 20.15 10 33
    endloop
  endfacet
  facet normal 0 1 0
    outer loop
      vertex 20.15 10 33
      vertex -17.196 10 33.521
      vertex -14.15 10 36
    endloop
  endfacet
  facet normal 0 1 0
    outer loop
      vertex 20.15 10 33
      vertex -14.15 10 36
      vertex 18.15 10 36
    endloop
  endfacet
  facet normal -0.17369 0 0.9848
    outer loop
      vertex -20.15 0 33
      vertex -20.15 -10 33
      vertex -17.196 -10 33.521
    endloop
  endfacet
  facet normal -0.17369 6.17072e-17 0.9848
    outer loop
      vertex -20.15 10 33
      vertex -20.15 0 33
      vertex -17.196 10 33.521
    endloop
  endfacet
  facet normal -0.17369 0 0.9848
    outer loop
      vertex -17.196 10 33.521
      vertex -20.15 0 33
      vertex -17.196 -10 33.521
    endloop
  endfacet
  facet normal 0 -0 1
    outer loop
      vertex -20.15 0 33
      vertex -20.15 -10 33
      vertex 20.15 -10 33
    endloop
  endfacet
  facet normal 0 0 1
    outer loop
      vertex 20.15 0 33
      vertex -20.15 0 33
      vertex 20.15 -10 33
    endloop
  endfacet
  facet normal -0 -0 -1
    outer loop
      vertex -20.15 -10 33
      vertex -20.15 0 33
      vertex 20.15 -10 33
    endloop
  endfacet
  facet normal 0 0 -1
    outer loop
      vertex 20.15 -10 33
      vertex -20.15 0 33
      vertex 20.15 0 33
    endloop
  endfacet
  facet normal 1 0 -0
    outer loop
      vertex 20.15 -10 33
      vertex 20.15 -10 0
      vertex 20.15 10 0
    endloop
  endfacet
  facet normal 7.10543e-16 0 -0
    outer loop
      vertex 20.15 0 33
      vertex 20.15 -10 33
      vertex 20.15 10 33
    endloop
  endfacet
  facet normal 1 -0 0
    outer loop
      vertex 20.15 10 33
      vertex 20.15 -10 33
      vertex 20.15 10 0
    endloop
  endfacet
  facet normal 0.83205 1.97069e-16 0.5547
    outer loop
      vertex 18.15 10 36
      vertex 18.15 -10 36
      vertex 20.15 -10 33
    endloop
  endfacet
  facet normal 0.83205 2.95604e-16 0.5547
    outer loop
      vertex 20.15 10 33
      vertex 18.15 10 36
      vertex 20.15 0 33
    endloop
  endfacet
  facet normal 0.83205 -0 0.5547
    outer loop
      vertex 20.15 0 33
      vertex 18.15 10 36
      vertex 20.15 -10 33
    endloop
  endfacet
  facet normal 0 -0 1
    outer loop
      vertex 10.15 -7 36
      vertex -14.15 -10 36
      vertex 18.15 -10 36
    endloop
  endfacet
  facet normal -1.84143e-16 3.55271e-16 1
    outer loop
      vertex -14.15 10 36
      vertex -14.15 -10 36
      vertex 3.22125 -0.996204 36
    endloop
  endfacet
  facet normal -0 0 1
    outer loop
      vertex 10.15 -7 36
      vertex 8.17787 -6.71645 36
      vertex -14.15 -10 36
    endloop
  endfacet
  facet normal -0 7.10543e-16 1
    outer loop
      vertex 18.15 10 36
      vertex -14.15 10 36
      vertex 3.22125 1.83691e-16 36
    endloop
  endfacet
  facet normal 3.31642e-15 3.55271e-16 1
    outer loop
      vertex 18.15 10 36
      vertex 17.0788 1.83691e-16 36
      vertex 18.15 -10 36
    endloop
  endfacet
  facet normal 0 7.10543e-16 1
    outer loop
      vertex 18.15 10 36
      vertex 3.22125 1.83691e-16 36
      vertex 17.0788 1.83691e-16 36
    endloop
  endfacet
  facet normal 0 -0 1
    outer loop
      vertex 17.0788 1.83691e-16 36
      vertex 17.0788 -0.996204 36
      vertex 18.15 -10 36
    endloop
  endfacet
  facet normal 0 -0 1
    outer loop
      vertex 17.0788 -0.996204 36
      vertex 16.5174 -2.9079 36
      vertex 18.15 -10 36
    endloop
  endfacet
  facet normal 0 -0 1
    outer loop
      vertex 16.5174 -2.9079 36
      vertex 15.4402 -4.58402 36
      vertex 18.15 -10 36
    endloop
  endfacet
  facet normal 0 -0 1
    outer loop
      vertex 15.4402 -4.58402 36
      vertex 13.9345 -5.88877 36
      vertex 18.15 -10 36
    endloop
  endfacet
  facet normal 0 -0 1
    outer loop
      vertex 12.1221 -6.71645 36
      vertex 10.15 -7 36
      vertex 18.15 -10 36
    endloop
  endfacet
  facet normal 0 -0 1
    outer loop
      vertex 6.36551 -5.88877 36
      vertex -14.15 -10 36
      vertex 8.17787 -6.71645 36
    endloop
  endfacet
  facet normal 0 -0 1
    outer loop
      vertex 4.85975 -4.58402 36
      vertex -14.15 -10 36
      vertex 6.36551 -5.88877 36
    endloop
  endfacet
  facet normal 0 -0 1
    outer loop
      vertex 3.78258 -2.9079 36
      vertex -14.15 -10 36
      vertex 4.85975 -4.58402 36
    endloop
  endfacet
  facet normal 0 -0 1
    outer loop
      vertex 3.22125 -0.996204 36
      vertex -14.15 -10 36
      vertex 3.78258 -2.9079 36
    endloop
  endfacet
  facet normal -4.09034e-16 0 1
    outer loop
      vertex 3.22125 -0.996204 36
      vertex 3.22125 1.83691e-16 36
      vertex -14.15 10 36
    endloop
  endfacet
  facet normal 0 -0 1
    outer loop
      vertex 13.9345 -5.88877 36
      vertex 12.1221 -6.71645 36
      vertex 18.15 -10 36
    endloop
  endfacet
  facet normal -0.631225 0 0.7756
    outer loop
      vertex -17.196 10 33.521
      vertex -17.196 -10 33.521
      vertex -14.15 -10 36
    endloop
  endfacet
  facet normal -0.631225 2.75548e-16 0.7756
    outer loop
      vertex -14.15 10 36
      vertex -17.196 10 33.521
      vertex -14.15 -10 36
    endloop
  endfacet
  facet normal 0 -1 3.40951e-15
    outer loop
      vertex -17.196 -10 33.521
      vertex -20.15 -10 33
      vertex 20.15 -10 33
    endloop
  endfacet
  facet normal 0 -1 0
    outer loop
      vertex -14.15 -10 36
      vertex -17.196 -10 33.521
      vertex 18.15 -10 36
    endloop
  endfacet
  facet normal -3.96734e-17 -1 5.6567e-16
    outer loop
      vertex 18.15 -10 36
      vertex -17.196 -10 33.521
      vertex 20.15 -10 33
    endloop
  endfacet
  facet normal 0 0 -0
    outer loop
      vertex 3.22125 1.83691e-16 36
      vertex 3.22125 -0.996204 36
      vertex 3.22125 0.996204 36
    endloop
  endfacet
  facet normal -0.710715 0 0.703481
    outer loop
      vertex 3.22125 0.996204 36
      vertex 3.22125 -0.996204 36
      vertex 5.20089 -0.711574 38
    endloop
  endfacet
  facet normal -0.710715 0 0.703481
    outer loop
      vertex 3.22125 0.996204 36
      vertex 5.20089 -0.711574 38
      vertex 5.20089 0.711574 38
    endloop
  endfacet
  facet normal -0.681926 -0.200231 0.703481
    outer loop
      vertex 5.20089 -0.711574 38
      vertex 3.22125 -0.996204 36
      vertex 3.78258 -2.9079 36
    endloop
  endfacet
  facet normal -0.681926 -0.200231 0.70348
    outer loop
      vertex 5.60184 -2.07707 38
      vertex 5.20089 -0.711574 38
      vertex 3.78258 -2.9079 36
    endloop
  endfacet
  facet normal -0.597891 -0.384241 0.703481
    outer loop
      vertex 5.60184 -2.07707 38
      vertex 3.78258 -2.9079 36
      vertex 4.85975 -4.58402 36
    endloop
  endfacet
  facet normal -0.597891 -0.384241 0.70348
    outer loop
      vertex 6.37125 -3.2743 38
      vertex 5.60184 -2.07707 38
      vertex 4.85975 -4.58402 36
    endloop
  endfacet
  facet normal -0.465419 -0.537122 0.70348
    outer loop
      vertex 6.37125 -3.2743 38
      vertex 4.85975 -4.58402 36
      vertex 6.36551 -5.88877 36
    endloop
  endfacet
  facet normal -0.465419 -0.537122 0.703481
    outer loop
      vertex 7.4468 -4.20627 38
      vertex 6.37125 -3.2743 38
      vertex 6.36551 -5.88877 36
    endloop
  endfacet
  facet normal -0.295241 -0.646489 0.703481
    outer loop
      vertex 7.4468 -4.20627 38
      vertex 6.36551 -5.88877 36
      vertex 8.17787 -6.71645 36
    endloop
  endfacet
  facet normal -0.295241 -0.646489 0.703481
    outer loop
      vertex 8.74134 -4.79746 38
      vertex 7.4468 -4.20627 38
      vertex 8.17787 -6.71645 36
    endloop
  endfacet
  facet normal -0.101145 -0.703481 0.703481
    outer loop
      vertex 8.74134 -4.79746 38
      vertex 8.17787 -6.71645 36
      vertex 10.15 -7 36
    endloop
  endfacet
  facet normal -0.101145 -0.703481 0.703481
    outer loop
      vertex 10.15 -5 38
      vertex 8.74134 -4.79746 38
      vertex 10.15 -7 36
    endloop
  endfacet
  facet normal 0.101145 -0.703481 0.703481
    outer loop
      vertex 10.15 -5 38
      vertex 10.15 -7 36
      vertex 12.1221 -6.71645 36
    endloop
  endfacet
  facet normal 0.101145 -0.703481 0.703481
    outer loop
      vertex 11.5587 -4.79746 38
      vertex 10.15 -5 38
      vertex 12.1221 -6.71645 36
    endloop
  endfacet
  facet normal 0.295241 -0.646489 0.703481
    outer loop
      vertex 13.9345 -5.88877 36
      vertex 11.5587 -4.79746 38
      vertex 12.1221 -6.71645 36
    endloop
  endfacet
  facet normal 0.295241 -0.646489 0.703481
    outer loop
      vertex 12.8532 -4.20627 38
      vertex 11.5587 -4.79746 38
      vertex 13.9345 -5.88877 36
    endloop
  endfacet
  facet normal 0.465419 -0.537122 0.703481
    outer loop
      vertex 15.4402 -4.58402 36
      vertex 12.8532 -4.20627 38
      vertex 13.9345 -5.88877 36
    endloop
  endfacet
  facet normal 0.465419 -0.537122 0.70348
    outer loop
      vertex 13.9287 -3.2743 38
      vertex 12.8532 -4.20627 38
      vertex 15.4402 -4.58402 36
    endloop
  endfacet
  facet normal 0.597891 -0.384241 0.70348
    outer loop
      vertex 16.5174 -2.9079 36
      vertex 13.9287 -3.2743 38
      vertex 15.4402 -4.58402 36
    endloop
  endfacet
  facet normal 0.597891 -0.384241 0.703481
    outer loop
      vertex 14.6982 -2.07707 38
      vertex 13.9287 -3.2743 38
      vertex 16.5174 -2.9079 36
    endloop
  endfacet
  facet normal 0.681926 -0.200231 0.703481
    outer loop
      vertex 17.0788 -0.996204 36
      vertex 14.6982 -2.07707 38
      vertex 16.5174 -2.9079 36
    endloop
  endfacet
  facet normal 0.681926 -0.200231 0.703481
    outer loop
      vertex 15.0991 -0.711574 38
      vertex 14.6982 -2.07707 38
      vertex 17.0788 -0.996204 36
    endloop
  endfacet
  facet normal 0.710715 -0 0.703481
    outer loop
      vertex 15.0991 0.711574 38
      vertex 15.0991 -0.711574 38
      vertex 17.0788 -0.996204 36
    endloop
  endfacet
  facet normal 0.710715 -0 0.703481
    outer loop
      vertex 17.0788 0.996204 36
      vertex 15.0991 0.711574 38
      vertex 17.0788 1.83691e-16 36
    endloop
  endfacet
  facet normal 0.710715 -0 0.703481
    outer loop
      vertex 17.0788 1.83691e-16 36
      vertex 15.0991 0.711574 38
      vertex 17.0788 -0.996204 36
    endloop
  endfacet
  facet normal -0 -0 -1
    outer loop
      vertex 3.22125 1.83691e-16 36
      vertex 3.22125 0.996204 36
      vertex 17.0788 1.83691e-16 36
    endloop
  endfacet
  facet normal 0 0 -1
    outer loop
      vertex 17.0788 1.83691e-16 36
      vertex 3.22125 0.996204 36
      vertex 3.78258 2.9079 36
    endloop
  endfacet
  facet normal 0 0 -1
    outer loop
      vertex 17.0788 1.83691e-16 36
      vertex 3.78258 2.9079 36
      vertex 4.85975 4.58402 36
    endloop
  endfacet
  facet normal 0 0 -1
    outer loop
      vertex 17.0788 1.83691e-16 36
      vertex 4.85975 4.58402 36
      vertex 6.36551 5.88877 36
    endloop
  endfacet
  facet normal 0 0 -1
    outer loop
      vertex 17.0788 1.83691e-16 36
      vertex 6.36551 5.88877 36
      vertex 8.17787 6.71645 36
    endloop
  endfacet
  facet normal 0 0 -1
    outer loop
      vertex 17.0788 1.83691e-16 36
      vertex 8.17787 6.71645 36
      vertex 10.15 7 36
    endloop
  endfacet
  facet normal 0 0 -1
    outer loop
      vertex 17.0788 1.83691e-16 36
      vertex 10.15 7 36
      vertex 12.1221 6.71645 36
    endloop
  endfacet
  facet normal 0 0 -1
    outer loop
      vertex 17.0788 1.83691e-16 36
      vertex 12.1221 6.71645 36
      vertex 13.9345 5.88877 36
    endloop
  endfacet
  facet normal 0 0 -1
    outer loop
      vertex 17.0788 1.83691e-16 36
      vertex 13.9345 5.88877 36
      vertex 15.4402 4.58402 36
    endloop
  endfacet
  facet normal 0 0 -1
    outer loop
      vertex 17.0788 1.83691e-16 36
      vertex 15.4402 4.58402 36
      vertex 16.5174 2.9079 36
    endloop
  endfacet
  facet normal 0 0 -1
    outer loop
      vertex 17.0788 1.83691e-16 36
      vertex 16.5174 2.9079 36
      vertex 17.0788 0.996204 36
    endloop
  endfacet
  facet normal -0.681926 0.200231 0.703481
    outer loop
      vertex 3.78258 2.9079 36
      vertex 3.22125 0.996204 36
      vertex 5.60184 2.07707 38
    endloop
  endfacet
  facet normal -0.681926 0.200231 0.703481
    outer loop
      vertex 5.60184 2.07707 38
      vertex 3.22125 0.996204 36
      vertex 5.20089 0.711574 38
    endloop
  endfacet
  facet normal 0 -0 1
    outer loop
      vertex 5.20089 0.711574 38
      vertex 5.20089 -0.711574 38
      vertex 5.60184 -2.07707 38
    endloop
  endfacet
  facet normal 0 0 1
    outer loop
      vertex 7.4468 -4.20627 38
      vertex 5.20089 0.711574 38
      vertex 6.37125 -3.2743 38
    endloop
  endfacet
  facet normal 0 0 1
    outer loop
      vertex 6.37125 -3.2743 38
      vertex 5.20089 0.711574 38
      vertex 5.60184 -2.07707 38
    endloop
  endfacet
  facet normal 0 0 1
    outer loop
      vertex 8.74134 -4.79746 38
      vertex 5.20089 0.711574 38
      vertex 7.4468 -4.20627 38
    endloop
  endfacet
  facet normal 0 0 1
    outer loop
      vertex 10.15 -5 38
      vertex 5.20089 0.711574 38
      vertex 8.74134 -4.79746 38
    endloop
  endfacet
  facet normal -0 -0 1
    outer loop
      vertex 7.88275 -1.96458 38
      vertex 5.20089 0.711574 38
      vertex 10.15 -5 38
    endloop
  endfacet
  facet normal 0 0 1
    outer loop
      vertex 7.18054 0.426945 38
      vertex 7.4211 1.24625 38
      vertex 5.20089 0.711574 38
    endloop
  endfacet
  facet normal 0 0 1
    outer loop
      vertex 12.4172 1.96458 38
      vertex 12.8789 1.24625 38
      vertex 14.6982 2.07707 38
    endloop
  endfacet
  facet normal 0 0 1
    outer loop
      vertex 10.9952 2.87848 38
      vertex 11.7719 2.52376 38
      vertex 13.9287 3.2743 38
    endloop
  endfacet
  facet normal 0 -0 1
    outer loop
      vertex 10.15 5 38
      vertex 5.20089 0.711574 38
      vertex 11.5587 4.79746 38
    endloop
  endfacet
  facet normal 0 -0 1
    outer loop
      vertex 8.74134 4.79746 38
      vertex 5.20089 0.711574 38
      vertex 10.15 5 38
    endloop
  endfacet
  facet normal 0 -0 1
    outer loop
      vertex 7.4468 4.20627 38
      vertex 5.20089 0.711574 38
      vertex 8.74134 4.79746 38
    endloop
  endfacet
  facet normal 0 -0 1
    outer loop
      vertex 6.37125 3.2743 38
      vertex 5.20089 0.711574 38
      vertex 7.4468 4.20627 38
    endloop
  endfacet
  facet normal 0 -0 1
    outer loop
      vertex 5.60184 2.07707 38
      vertex 5.20089 0.711574 38
      vertex 6.37125 3.2743 38
    endloop
  endfacet
  facet normal -0 -0 1
    outer loop
      vertex 10.15 -3 38
      vertex 9.3048 -2.87848 38
      vertex 11.5587 -4.79746 38
    endloop
  endfacet
  facet normal 0 -0 1
    outer loop
      vertex 12.8789 -1.24625 38
      vertex 12.4172 -1.96458 38
      vertex 14.6982 -2.07707 38
    endloop
  endfacet
  facet normal -0 0 1
    outer loop
      vertex 7.4211 1.24625 38
      vertex 7.88275 1.96458 38
      vertex 5.20089 0.711574 38
    endloop
  endfacet
  facet normal 0 0 1
    outer loop
      vertex 8.52808 2.52376 38
      vertex 5.20089 0.711574 38
      vertex 7.88275 1.96458 38
    endloop
  endfacet
  facet normal 0 0 1
    outer loop
      vertex 10.15 3 38
      vertex 10.9952 2.87848 38
      vertex 12.8532 4.20627 38
    endloop
  endfacet
  facet normal 0 0 1
    outer loop
      vertex 11.5587 4.79746 38
      vertex 5.20089 0.711574 38
      vertex 8.52808 2.52376 38
    endloop
  endfacet
  facet normal 0 -0 1
    outer loop
      vertex 11.5587 4.79746 38
      vertex 9.3048 2.87848 38
      vertex 12.8532 4.20627 38
    endloop
  endfacet
  facet normal 0 0 1
    outer loop
      vertex 9.3048 2.87848 38
      vertex 10.15 3 38
      vertex 12.8532 4.20627 38
    endloop
  endfacet
  facet normal 0 -0 1
    outer loop
      vertex 12.8532 4.20627 38
      vertex 10.9952 2.87848 38
      vertex 13.9287 3.2743 38
    endloop
  endfacet
  facet normal 0 0 1
    outer loop
      vertex 8.52808 2.52376 38
      vertex 9.3048 2.87848 38
      vertex 11.5587 4.79746 38
    endloop
  endfacet
  facet normal 0 -0 1
    outer loop
      vertex 13.9287 3.2743 38
      vertex 11.7719 2.52376 38
      vertex 14.6982 2.07707 38
    endloop
  endfacet
  facet normal 0 0 1
    outer loop
      vertex 11.7719 2.52376 38
      vertex 12.4172 1.96458 38
      vertex 14.6982 2.07707 38
    endloop
  endfacet
  facet normal 0 -0 1
    outer loop
      vertex 14.6982 2.07707 38
      vertex 12.8789 1.24625 38
      vertex 15.0991 0.711574 38
    endloop
  endfacet
  facet normal 0 0 1
    outer loop
      vertex 12.8789 1.24625 38
      vertex 13.1195 0.426945 38
      vertex 15.0991 0.711574 38
    endloop
  endfacet
  facet normal 0 0 1
    outer loop
      vertex 15.0991 0.711574 38
      vertex 13.1195 0.426945 38
      vertex 15.0991 -0.711574 38
    endloop
  endfacet
  facet normal -0 0 1
    outer loop
      vertex 15.0991 -0.711574 38
      vertex 13.1195 -0.426945 38
      vertex 14.6982 -2.07707 38
    endloop
  endfacet
  facet normal 0 -0 1
    outer loop
      vertex 12.4172 -1.96458 38
      vertex 11.7719 -2.52376 38
      vertex 13.9287 -3.2743 38
    endloop
  endfacet
  facet normal 0 -0 1
    outer loop
      vertex 13.1195 -0.426945 38
      vertex 12.8789 -1.24625 38
      vertex 14.6982 -2.07707 38
    endloop
  endfacet
  facet normal 0 -0 1
    outer loop
      vertex 13.1195 0.426945 38
      vertex 13.1195 -0.426945 38
      vertex 15.0991 -0.711574 38
    endloop
  endfacet
  facet normal -0 0 1
    outer loop
      vertex 14.6982 -2.07707 38
      vertex 12.4172 -1.96458 38
      vertex 13.9287 -3.2743 38
    endloop
  endfacet
  facet normal -0 0 1
    outer loop
      vertex 13.9287 -3.2743 38
      vertex 11.7719 -2.52376 38
      vertex 12.8532 -4.20627 38
    endloop
  endfacet
  facet normal 0 -0 1
    outer loop
      vertex 11.7719 -2.52376 38
      vertex 10.9952 -2.87848 38
      vertex 12.8532 -4.20627 38
    endloop
  endfacet
  facet normal -0 0 1
    outer loop
      vertex 12.8532 -4.20627 38
      vertex 10.15 -3 38
      vertex 11.5587 -4.79746 38
    endloop
  endfacet
  facet normal -0 0 1
    outer loop
      vertex 11.5587 -4.79746 38
      vertex 9.3048 -2.87848 38
      vertex 10.15 -5 38
    endloop
  endfacet
  facet normal -0 -0 1
    outer loop
      vertex 9.3048 -2.87848 38
      vertex 8.52808 -2.52376 38
      vertex 10.15 -5 38
    endloop
  endfacet
  facet normal -0 -0 1
    outer loop
      vertex 8.52808 -2.52376 38
      vertex 7.88275 -1.96458 38
      vertex 10.15 -5 38
    endloop
  endfacet
  facet normal 0 0 1
    outer loop
      vertex 7.88275 -1.96458 38
      vertex 7.4211 -1.24625 38
      vertex 5.20089 0.711574 38
    endloop
  endfacet
  facet normal 0 0 1
    outer loop
      vertex 7.4211 -1.24625 38
      vertex 7.18054 -0.426945 38
      vertex 5.20089 0.711574 38
    endloop
  endfacet
  facet normal 0 -0 1
    outer loop
      vertex 10.9952 -2.87848 38
      vertex 10.15 -3 38
      vertex 12.8532 -4.20627 38
    endloop
  endfacet
  facet normal 0 0 1
    outer loop
      vertex 7.18054 -0.426945 38
      vertex 7.18054 0.426945 38
      vertex 5.20089 0.711574 38
    endloop
  endfacet
  facet normal 0.681926 0.200231 0.70348
    outer loop
      vertex 16.5174 2.9079 36
      vertex 14.6982 2.07707 38
      vertex 15.0991 0.711574 38
    endloop
  endfacet
  facet normal 0.681926 0.200231 0.703481
    outer loop
      vertex 16.5174 2.9079 36
      vertex 15.0991 0.711574 38
      vertex 17.0788 0.996204 36
    endloop
  endfacet
  facet normal 0.597891 0.384241 0.703481
    outer loop
      vertex 15.4402 4.58402 36
      vertex 14.6982 2.07707 38
      vertex 16.5174 2.9079 36
    endloop
  endfacet
  facet normal 0.597891 0.384241 0.70348
    outer loop
      vertex 15.4402 4.58402 36
      vertex 13.9287 3.2743 38
      vertex 14.6982 2.07707 38
    endloop
  endfacet
  facet normal 0.465419 0.537122 0.70348
    outer loop
      vertex 13.9345 5.88877 36
      vertex 13.9287 3.2743 38
      vertex 15.4402 4.58402 36
    endloop
  endfacet
  facet normal 0.465419 0.537122 0.703481
    outer loop
      vertex 13.9345 5.88877 36
      vertex 12.8532 4.20627 38
      vertex 13.9287 3.2743 38
    endloop
  endfacet
  facet normal 0.295241 0.646489 0.703481
    outer loop
      vertex 13.9345 5.88877 36
      vertex 12.1221 6.71645 36
      vertex 12.8532 4.20627 38
    endloop
  endfacet
  facet normal 0.295241 0.646489 0.703481
    outer loop
      vertex 12.1221 6.71645 36
      vertex 11.5587 4.79746 38
      vertex 12.8532 4.20627 38
    endloop
  endfacet
  facet normal 0.101145 0.703481 0.703481
    outer loop
      vertex 12.1221 6.71645 36
      vertex 10.15 7 36
      vertex 11.5587 4.79746 38
    endloop
  endfacet
  facet normal 0.101145 0.703481 0.703481
    outer loop
      vertex 10.15 7 36
      vertex 10.15 5 38
      vertex 11.5587 4.79746 38
    endloop
  endfacet
  facet normal -0.101145 0.703481 0.703481
    outer loop
      vertex 10.15 7 36
      vertex 8.17787 6.71645 36
      vertex 10.15 5 38
    endloop
  endfacet
  facet normal -0.101145 0.703481 0.703481
    outer loop
      vertex 10.15 5 38
      vertex 8.17787 6.71645 36
      vertex 8.74134 4.79746 38
    endloop
  endfacet
  facet normal -0.295241 0.646489 0.703481
    outer loop
      vertex 8.17787 6.71645 36
      vertex 6.36551 5.88877 36
      vertex 8.74134 4.79746 38
    endloop
  endfacet
  facet normal -0.295241 0.646489 0.703481
    outer loop
      vertex 8.74134 4.79746 38
      vertex 6.36551 5.88877 36
      vertex 7.4468 4.20627 38
    endloop
  endfacet
  facet normal -0.465419 0.537122 0.703481
    outer loop
      vertex 6.36551 5.88877 36
      vertex 4.85975 4.58402 36
      vertex 7.4468 4.20627 38
    endloop
  endfacet
  facet normal -0.465419 0.537122 0.70348
    outer loop
      vertex 7.4468 4.20627 38
      vertex 4.85975 4.58402 36
      vertex 6.37125 3.2743 38
    endloop
  endfacet
  facet normal -0.597891 0.384241 0.70348
    outer loop
      vertex 4.85975 4.58402 36
      vertex 3.78258 2.9079 36
      vertex 6.37125 3.2743 38
    endloop
  endfacet
  facet normal -0.597891 0.384241 0.703481
    outer loop
      vertex 6.37125 3.2743 38
      vertex 3.78258 2.9079 36
      vertex 5.60184 2.07707 38
    endloop
  endfacet
  facet normal -1 -0 -0
    outer loop
      vertex 7.18054 -0.426945 38
      vertex 7.18054 -0.426945 42
      vertex 7.18054 0.426945 38
    endloop
  endfacet
  facet normal -1 0 0
    outer loop
      vertex 7.18054 0.426945 38
      vertex 7.18054 -0.426945 42
      vertex 7.18054 0.426945 42
    endloop
  endfacet
  facet normal -0.959493 -0.281732 -0
    outer loop
      vertex 7.18054 -0.426945 38
      vertex 7.4211 -1.24625 38
      vertex 7.18054 -0.426945 42
    endloop
  endfacet
  facet normal -0.959493 -0.281732 0
    outer loop
      vertex 7.18054 -0.426945 42
      vertex 7.4211 -1.24625 38
      vertex 7.4211 -1.24625 42
    endloop
  endfacet
  facet normal -0.841254 -0.540641 -0
    outer loop
      vertex 7.4211 -1.24625 38
      vertex 7.88275 -1.96458 38
      vertex 7.4211 -1.24625 42
    endloop
  endfacet
  facet normal -0.841254 -0.540641 0
    outer loop
      vertex 7.4211 -1.24625 42
      vertex 7.88275 -1.96458 38
      vertex 7.88275 -1.96458 42
    endloop
  endfacet
  facet normal -0.654861 -0.75575 0
    outer loop
      vertex 7.88275 -1.96458 42
      vertex 7.88275 -1.96458 38
      vertex 8.52808 -2.52376 38
    endloop
  endfacet
  facet normal -0.654861 -0.75575 0
    outer loop
      vertex 8.52808 -2.52376 42
      vertex 7.88275 -1.96458 42
      vertex 8.52808 -2.52376 38
    endloop
  endfacet
  facet normal -0.415415 -0.909632 0
    outer loop
      vertex 8.52808 -2.52376 42
      vertex 8.52808 -2.52376 38
      vertex 9.3048 -2.87848 38
    endloop
  endfacet
  facet normal -0.415415 -0.909632 0
    outer loop
      vertex 9.3048 -2.87848 42
      vertex 8.52808 -2.52376 42
      vertex 9.3048 -2.87848 38
    endloop
  endfacet
  facet normal -0.142315 -0.989821 0
    outer loop
      vertex 9.3048 -2.87848 42
      vertex 9.3048 -2.87848 38
      vertex 10.15 -3 38
    endloop
  endfacet
  facet normal -0.142315 -0.989821 0
    outer loop
      vertex 10.15 -3 42
      vertex 9.3048 -2.87848 42
      vertex 10.15 -3 38
    endloop
  endfacet
  facet normal 0.142315 -0.989821 0
    outer loop
      vertex 10.15 -3 42
      vertex 10.15 -3 38
      vertex 10.9952 -2.87848 38
    endloop
  endfacet
  facet normal 0.142315 -0.989821 0
    outer loop
      vertex 10.9952 -2.87848 42
      vertex 10.15 -3 42
      vertex 10.9952 -2.87848 38
    endloop
  endfacet
  facet normal 0.415415 -0.909632 0
    outer loop
      vertex 10.9952 -2.87848 42
      vertex 10.9952 -2.87848 38
      vertex 11.7719 -2.52376 38
    endloop
  endfacet
  facet normal 0.415415 -0.909632 0
    outer loop
      vertex 11.7719 -2.52376 42
      vertex 10.9952 -2.87848 42
      vertex 11.7719 -2.52376 38
    endloop
  endfacet
  facet normal 0.654861 -0.75575 0
    outer loop
      vertex 11.7719 -2.52376 42
      vertex 11.7719 -2.52376 38
      vertex 12.4172 -1.96458 38
    endloop
  endfacet
  facet normal 0.654861 -0.75575 0
    outer loop
      vertex 12.4172 -1.96458 42
      vertex 11.7719 -2.52376 42
      vertex 12.4172 -1.96458 38
    endloop
  endfacet
  facet normal 0.841254 -0.540641 0
    outer loop
      vertex 12.4172 -1.96458 42
      vertex 12.4172 -1.96458 38
      vertex 12.8789 -1.24625 38
    endloop
  endfacet
  facet normal 0.841254 -0.540641 0
    outer loop
      vertex 12.8789 -1.24625 42
      vertex 12.4172 -1.96458 42
      vertex 12.8789 -1.24625 38
    endloop
  endfacet
  facet normal 0.959493 -0.281732 0
    outer loop
      vertex 12.8789 -1.24625 42
      vertex 12.8789 -1.24625 38
      vertex 13.1195 -0.426945 38
    endloop
  endfacet
  facet normal 0.959493 -0.281732 0
    outer loop
      vertex 13.1195 -0.426945 42
      vertex 12.8789 -1.24625 42
      vertex 13.1195 -0.426945 38
    endloop
  endfacet
  facet normal 1 0 -0
    outer loop
      vertex 13.1195 -0.426945 42
      vertex 13.1195 -0.426945 38
      vertex 13.1195 0.426945 38
    endloop
  endfacet
  facet normal 1 0 0
    outer loop
      vertex 13.1195 0.426945 42
      vertex 13.1195 -0.426945 42
      vertex 13.1195 0.426945 38
    endloop
  endfacet
  facet normal 0.959493 0.281732 0
    outer loop
      vertex 13.1195 0.426945 38
      vertex 12.8789 1.24625 38
      vertex 12.8789 1.24625 42
    endloop
  endfacet
  facet normal 0.959493 0.281732 -0
    outer loop
      vertex 13.1195 0.426945 42
      vertex 13.1195 0.426945 38
      vertex 12.8789 1.24625 42
    endloop
  endfacet
  facet normal 0.841254 0.540641 0
    outer loop
      vertex 12.8789 1.24625 38
      vertex 12.4172 1.96458 38
      vertex 12.4172 1.96458 42
    endloop
  endfacet
  facet normal 0.841254 0.540641 -0
    outer loop
      vertex 12.8789 1.24625 42
      vertex 12.8789 1.24625 38
      vertex 12.4172 1.96458 42
    endloop
  endfacet
  facet normal 0.654861 0.75575 0
    outer loop
      vertex 11.7719 2.52376 38
      vertex 11.7719 2.52376 42
      vertex 12.4172 1.96458 38
    endloop
  endfacet
  facet normal 0.654861 0.75575 0
    outer loop
      vertex 12.4172 1.96458 38
      vertex 11.7719 2.52376 42
      vertex 12.4172 1.96458 42
    endloop
  endfacet
  facet normal 0.415415 0.909632 0
    outer loop
      vertex 10.9952 2.87848 38
      vertex 10.9952 2.87848 42
      vertex 11.7719 2.52376 38
    endloop
  endfacet
  facet normal 0.415415 0.909632 0
    outer loop
      vertex 11.7719 2.52376 38
      vertex 10.9952 2.87848 42
      vertex 11.7719 2.52376 42
    endloop
  endfacet
  facet normal 0.142315 0.989821 0
    outer loop
      vertex 10.15 3 38
      vertex 10.15 3 42
      vertex 10.9952 2.87848 38
    endloop
  endfacet
  facet normal 0.142315 0.989821 0
    outer loop
      vertex 10.9952 2.87848 38
      vertex 10.15 3 42
      vertex 10.9952 2.87848 42
    endloop
  endfacet
  facet normal -0.142315 0.989821 0
    outer loop
      vertex 9.3048 2.87848 38
      vertex 9.3048 2.87848 42
      vertex 10.15 3 38
    endloop
  endfacet
  facet normal -0.142315 0.989821 0
    outer loop
      vertex 10.15 3 38
      vertex 9.3048 2.87848 42
      vertex 10.15 3 42
    endloop
  endfacet
  facet normal -0.415415 0.909632 0
    outer loop
      vertex 8.52808 2.52376 38
      vertex 8.52808 2.52376 42
      vertex 9.3048 2.87848 38
    endloop
  endfacet
  facet normal -0.415415 0.909632 0
    outer loop
      vertex 9.3048 2.87848 38
      vertex 8.52808 2.52376 42
      vertex 9.3048 2.87848 42
    endloop
  endfacet
  facet normal -0.654861 0.75575 0
    outer loop
      vertex 7.88275 1.96458 38
      vertex 7.88275 1.96458 42
      vertex 8.52808 2.52376 38
    endloop
  endfacet
  facet normal -0.654861 0.75575 0
    outer loop
      vertex 8.52808 2.52376 38
      vertex 7.88275 1.96458 42
      vertex 8.52808 2.52376 42
    endloop
  endfacet
  facet normal -0.841254 0.540641 0
    outer loop
      vertex 7.4211 1.24625 38
      vertex 7.4211 1.24625 42
      vertex 7.88275 1.96458 38
    endloop
  endfacet
  facet normal -0.841254 0.540641 0
    outer loop
      vertex 7.88275 1.96458 38
      vertex 7.4211 1.24625 42
      vertex 7.88275 1.96458 42
    endloop
  endfacet
  facet normal -0.959493 0.281732 0
    outer loop
      vertex 7.18054 0.426945 38
      vertex 7.18054 0.426945 42
      vertex 7.4211 1.24625 38
    endloop
  endfacet
  facet normal -0.959493 0.281732 0
    outer loop
      vertex 7.4211 1.24625 38
      vertex 7.18054 0.426945 42
      vertex 7.4211 1.24625 42
    endloop
  endfacet
  facet normal 0 -0 1
    outer loop
      vertex 7.18054 0.426945 42
      vertex 7.18054 -0.426945 42
      vertex 7.4211 -1.24625 42
    endloop
  endfacet
  facet normal 0 0 1
    outer loop
      vertex 8.52808 -2.52376 42
      vertex 7.18054 0.426945 42
      vertex 7.88275 -1.96458 42
    endloop
  endfacet
  facet normal 0 0 1
    outer loop
      vertex 7.88275 -1.96458 42
      vertex 7.18054 0.426945 42
      vertex 7.4211 -1.24625 42
    endloop
  endfacet
  facet normal 0 0 1
    outer loop
      vertex 9.3048 -2.87848 42
      vertex 7.18054 0.426945 42
      vertex 8.52808 -2.52376 42
    endloop
  endfacet
  facet normal 0 0 1
    outer loop
      vertex 10.15 -3 42
      vertex 7.18054 0.426945 42
      vertex 9.3048 -2.87848 42
    endloop
  endfacet
  facet normal -0 0 1
    outer loop
      vertex 10.9952 -2.87848 42
      vertex 7.18054 0.426945 42
      vertex 10.15 -3 42
    endloop
  endfacet
  facet normal -0 0 1
    outer loop
      vertex 11.7719 -2.52376 42
      vertex 7.18054 0.426945 42
      vertex 10.9952 -2.87848 42
    endloop
  endfacet
  facet normal -0 0 1
    outer loop
      vertex 12.4172 -1.96458 42
      vertex 7.18054 0.426945 42
      vertex 11.7719 -2.52376 42
    endloop
  endfacet
  facet normal -0 0 1
    outer loop
      vertex 12.8789 -1.24625 42
      vertex 7.18054 0.426945 42
      vertex 12.4172 -1.96458 42
    endloop
  endfacet
  facet normal -0 0 1
    outer loop
      vertex 13.1195 -0.426945 42
      vertex 7.18054 0.426945 42
      vertex 12.8789 -1.24625 42
    endloop
  endfacet
  facet normal 0 0 1
    outer loop
      vertex 13.1195 0.426945 42
      vertex 7.18054 0.426945 42
      vertex 13.1195 -0.426945 42
    endloop
  endfacet
  facet normal 0 -0 1
    outer loop
      vertex 12.8789 1.24625 42
      vertex 7.18054 0.426945 42
      vertex 13.1195 0.426945 42
    endloop
  endfacet
  facet normal 0 -0 1
    outer loop
      vertex 12.4172 1.96458 42
      vertex 7.18054 0.426945 42
      vertex 12.8789 1.24625 42
    endloop
  endfacet
  facet normal 0 -0 1
    outer loop
      vertex 11.7719 2.52376 42
      vertex 7.18054 0.426945 42
      vertex 12.4172 1.96458 42
    endloop
  endfacet
  facet normal 0 -0 1
    outer loop
      vertex 10.9952 2.87848 42
      vertex 7.18054 0.426945 42
      vertex 11.7719 2.52376 42
    endloop
  endfacet
  facet normal 0 -0 1
    outer loop
      vertex 10.15 3 42
      vertex 7.18054 0.426945 42
      vertex 10.9952 2.87848 42
    endloop
  endfacet
  facet normal 0 -0 1
    outer loop
      vertex 9.3048 2.87848 42
      vertex 7.18054 0.426945 42
      vertex 10.15 3 42
    endloop
  endfacet
  facet normal 0 -0 1
    outer loop
      vertex 8.52808 2.52376 42
      vertex 7.18054 0.426945 42
      vertex 9.3048 2.87848 42
    endloop
  endfacet
  facet normal 0 -0 1
    outer loop
      vertex 7.88275 1.96458 42
      vertex 7.18054 0.426945 42
      vertex 8.52808 2.52376 42
    endloop
  endfacet
  facet normal 0 -0 1
    outer loop
      vertex 7.4211 1.24625 42
      vertex 7.18054 0.426945 42
      vertex 7.88275 1.96458 42
    endloop
  endfacet
  facet normal -1 -0 -0
    outer loop
      vertex -27.65 -8 26.4
      vertex -27.65 -8 29
      vertex -27.65 8 26.4
    endloop
  endfacet
  facet normal -1 0 0
    outer loop
      vertex -27.65 8 26.4
      vertex -27.65 -8 29
      vertex -27.65 8 29
    endloop
  endfacet
  facet normal -0.92381 -0.382852 -0
    outer loop
      vertex -27.65 -8 26.4
      vertex -27.357 -8.707 26.4
      vertex -27.65 -8 29
    endloop
  endfacet
  facet normal -0.92381 -0.382852 0
    outer loop
      vertex -27.65 -8 29
      vertex -27.357 -8.707 26.4
      vertex -27.357 -8.707 29
    endloop
  endfacet
  facet normal -0 -0 -1
    outer loop
      vertex -27.65 -8 26.4
      vertex -27.65 8 26.4
      vertex -27.357 -8.707 26.4
    endloop
  endfacet
  facet normal 0 0 -1
    outer loop
      vertex -27.357 -8.707 26.4
      vertex -27.65 8 26.4
      vertex -27.357 8.707 26.4
    endloop
  endfacet
  facet normal 0 -0 -1
    outer loop
      vertex -27.357 -8.707 26.4
      vertex -27.357 8.707 26.4
      vertex -26.65 9 26.4
    endloop
  endfacet
  facet normal 0 -0 -1
    outer loop
      vertex -23.4081 6.83253 26.4
      vertex -26.65 9 26.4
      vertex -20.15 9 26.4
    endloop
  endfacet
  facet normal -0 0 -1
    outer loop
      vertex -22.05 -4.8 26.4
      vertex -20.15 9 26.4
      vertex -20.15 -9 26.4
    endloop
  endfacet
  facet normal 0 0 -1
    outer loop
      vertex -27.357 -8.707 26.4
      vertex -20.15 -9 26.4
      vertex -26.65 -9 26.4
    endloop
  endfacet
  facet normal 0 0 -1
    outer loop
      vertex -27.357 -8.707 26.4
      vertex -26.65 9 26.4
      vertex -26.45 -4.8 26.4
    endloop
  endfacet
  facet normal 0 0 -1
    outer loop
      vertex -26.2825 3.9581 26.4
      vertex -25.8056 -3.24436 26.4
      vertex -26.45 4.8 26.4
    endloop
  endfacet
  facet normal 0 0 -1
    outer loop
      vertex -27.357 -8.707 26.4
      vertex -26.45 -4.8 26.4
      vertex -26.2825 -5.6419 26.4
    endloop
  endfacet
  facet normal 0 0 -1
    outer loop
      vertex -22.2175 3.9581 26.4
      vertex -25.0919 -2.76746 26.4
      vertex -22.6944 3.24436 26.4
    endloop
  endfacet
  facet normal 0 0 -1
    outer loop
      vertex -24.25 -7 26.4
      vertex -20.15 -9 26.4
      vertex -25.0919 -6.83253 26.4
    endloop
  endfacet
  facet normal 0 0 -1
    outer loop
      vertex -27.357 -8.707 26.4
      vertex -25.8056 -6.35563 26.4
      vertex -25.0919 -6.83253 26.4
    endloop
  endfacet
  facet normal -0 0 -1
    outer loop
      vertex -27.357 -8.707 26.4
      vertex -25.0919 -6.83253 26.4
      vertex -20.15 -9 26.4
    endloop
  endfacet
  facet normal -0 0 -1
    outer loop
      vertex -22.05 4.8 26.4
      vertex -20.15 9 26.4
      vertex -22.2175 3.9581 26.4
    endloop
  endfacet
  facet normal -0 0 -1
    outer loop
      vertex -22.2175 -3.9581 26.4
      vertex -20.15 9 26.4
      vertex -22.05 -4.8 26.4
    endloop
  endfacet
  facet normal -0 0 -1
    outer loop
      vertex -23.4081 -2.76746 26.4
      vertex -20.15 9 26.4
      vertex -22.6944 -3.24436 26.4
    endloop
  endfacet
  facet normal -0 0 -1
    outer loop
      vertex -24.25 -7 26.4
      vertex -23.4081 -6.83253 26.4
      vertex -20.15 -9 26.4
    endloop
  endfacet
  facet normal -0 0 -1
    outer loop
      vertex -23.4081 -6.83253 26.4
      vertex -22.6944 -6.35563 26.4
      vertex -20.15 -9 26.4
    endloop
  endfacet
  facet normal -0 0 -1
    outer loop
      vertex -22.6944 -3.24436 26.4
      vertex -20.15 9 26.4
      vertex -22.2175 -3.9581 26.4
    endloop
  endfacet
  facet normal -0 0 -1
    outer loop
      vertex -22.6944 -6.35563 26.4
      vertex -22.2175 -5.6419 26.4
      vertex -20.15 -9 26.4
    endloop
  endfacet
  facet normal -0 0 -1
    outer loop
      vertex -22.2175 -5.6419 26.4
      vertex -22.05 -4.8 26.4
      vertex -20.15 -9 26.4
    endloop
  endfacet
  facet normal 0 0 -1
    outer loop
      vertex -25.0919 -2.76746 26.4
      vertex -22.2175 3.9581 26.4
      vertex -24.25 -2.6 26.4
    endloop
  endfacet
  facet normal -0 0 -1
    outer loop
      vertex -22.2175 3.9581 26.4
      vertex -20.15 9 26.4
      vertex -24.25 -2.6 26.4
    endloop
  endfacet
  facet normal -0 0 -1
    outer loop
      vertex -24.25 -2.6 26.4
      vertex -20.15 9 26.4
      vertex -23.4081 -2.76746 26.4
    endloop
  endfacet
  facet normal 0 0 -1
    outer loop
      vertex -22.6944 3.24436 26.4
      vertex -25.8056 -3.24436 26.4
      vertex -23.4081 2.76746 26.4
    endloop
  endfacet
  facet normal 0 -0 -1
    outer loop
      vertex -26.45 4.8 26.4
      vertex -26.65 9 26.4
      vertex -26.2825 5.6419 26.4
    endloop
  endfacet
  facet normal 0 -0 -1
    outer loop
      vertex -26.45 -4.8 26.4
      vertex -26.65 9 26.4
      vertex -26.2825 -3.9581 26.4
    endloop
  endfacet
  facet normal 0 0 -1
    outer loop
      vertex -26.2825 -3.9581 26.4
      vertex -26.65 9 26.4
      vertex -26.45 4.8 26.4
    endloop
  endfacet
  facet normal 0 -0 -1
    outer loop
      vertex -26.2825 -3.9581 26.4
      vertex -26.45 4.8 26.4
      vertex -25.8056 -3.24436 26.4
    endloop
  endfacet
  facet normal 0 0 -1
    outer loop
      vertex -25.8056 -3.24436 26.4
      vertex -26.2825 3.9581 26.4
      vertex -25.8056 3.24436 26.4
    endloop
  endfacet
  facet normal 0 -0 -1
    outer loop
      vertex -25.8056 -3.24436 26.4
      vertex -25.8056 3.24436 26.4
      vertex -25.0919 2.76746 26.4
    endloop
  endfacet
  facet normal 0 0 -1
    outer loop
      vertex -25.8056 -3.24436 26.4
      vertex -25.0919 2.76746 26.4
      vertex -24.25 2.6 26.4
    endloop
  endfacet
  facet normal 0 0 -1
    outer loop
      vertex -25.8056 -3.24436 26.4
      vertex -24.25 2.6 26.4
      vertex -23.4081 2.76746 26.4
    endloop
  endfacet
  facet normal -0 0 -1
    outer loop
      vertex -22.2175 5.6419 26.4
      vertex -20.15 9 26.4
      vertex -22.05 4.8 26.4
    endloop
  endfacet
  facet normal -0 0 -1
    outer loop
      vertex -22.6944 6.35563 26.4
      vertex -20.15 9 26.4
      vertex -22.2175 5.6419 26.4
    endloop
  endfacet
  facet normal -0 0 -1
    outer loop
      vertex -23.4081 6.83253 26.4
      vertex -20.15 9 26.4
      vertex -22.6944 6.35563 26.4
    endloop
  endfacet
  facet normal -0 -0 -1
    outer loop
      vertex -24.25 7 26.4
      vertex -26.65 9 26.4
      vertex -23.4081 6.83253 26.4
    endloop
  endfacet
  facet normal 0 -0 -1
    outer loop
      vertex -25.0919 6.83253 26.4
      vertex -26.65 9 26.4
      vertex -24.25 7 26.4
    endloop
  endfacet
  facet normal 0 -0 -1
    outer loop
      vertex -25.8056 6.35563 26.4
      vertex -26.65 9 26.4
      vertex -25.0919 6.83253 26.4
    endloop
  endfacet
  facet normal 0 -0 -1
    outer loop
      vertex -26.2825 5.6419 26.4
      vertex -26.65 9 26.4
      vertex -25.8056 6.35563 26.4
    endloop
  endfacet
  facet normal 0 0 -1
    outer loop
      vertex -25.8056 -6.35563 26.4
      vertex -27.357 -8.707 26.4
      vertex -26.2825 -5.6419 26.4
    endloop
  endfacet
  facet normal 0 0 -1
    outer loop
      vertex -25.8056 -3.24436 26.4
      vertex -22.6944 3.24436 26.4
      vertex -25.0919 -2.76746 26.4
    endloop
  endfacet
  facet normal -0.92381 0.382852 0
    outer loop
      vertex -27.65 8 26.4
      vertex -27.65 8 29
      vertex -27.357 8.707 26.4
    endloop
  endfacet
  facet normal -0.92381 0.382852 0
    outer loop
      vertex -27.357 8.707 26.4
      vertex -27.65 8 29
      vertex -27.357 8.707 29
    endloop
  endfacet
  facet normal 0 -0 1
    outer loop
      vertex -27.65 8 29
      vertex -27.65 -8 29
      vertex -27.357 -8.707 29
    endloop
  endfacet
  facet normal -0 0 1
    outer loop
      vertex -26.45 -4.8 29
      vertex -27.65 8 29
      vertex -26.65 -9 29
    endloop
  endfacet
  facet normal 0 0 1
    outer loop
      vertex -26.65 -9 29
      vertex -27.65 8 29
      vertex -27.357 -8.707 29
    endloop
  endfacet
  facet normal 0 0 1
    outer loop
      vertex -20.15 -0.75 29
      vertex -23.15 -0.75 29
      vertex -20.15 -9 29
    endloop
  endfacet
  facet normal 0 -0 1
    outer loop
      vertex -22.6944 3.24436 29
      vertex -23.4081 2.76746 29
      vertex -20.15 0.75 29
    endloop
  endfacet
  facet normal 0 0 1
    outer loop
      vertex -25.0919 6.83253 29
      vertex -24.25 7 29
      vertex -20.15 9 29
    endloop
  endfacet
  facet normal 0 -0 1
    outer loop
      vertex -26.65 9 29
      vertex -27.65 8 29
      vertex -20.15 9 29
    endloop
  endfacet
  facet normal 0 -0 1
    outer loop
      vertex -27.357 8.707 29
      vertex -27.65 8 29
      vertex -26.65 9 29
    endloop
  endfacet
  facet normal -0 0 1
    outer loop
      vertex -25.8056 -6.35563 29
      vertex -26.2825 -5.6419 29
      vertex -26.65 -9 29
    endloop
  endfacet
  facet normal 0 -0 1
    outer loop
      vertex -22.05 -4.8 29
      vertex -22.2175 -5.6419 29
      vertex -20.15 -9 29
    endloop
  endfacet
  facet normal -0 0 1
    outer loop
      vertex -26.2825 -5.6419 29
      vertex -26.45 -4.8 29
      vertex -26.65 -9 29
    endloop
  endfacet
  facet normal -0 -0 1
    outer loop
      vertex -25.0919 2.76746 29
      vertex -25.8056 3.24436 29
      vertex -23.4081 -2.76746 29
    endloop
  endfacet
  facet normal -0 0 1
    outer loop
      vertex -25.8056 -3.24436 29
      vertex -27.65 8 29
      vertex -26.2825 -3.9581 29
    endloop
  endfacet
  facet normal 0 -0 1
    outer loop
      vertex -23.4081 -6.83253 29
      vertex -24.25 -7 29
      vertex -20.15 -9 29
    endloop
  endfacet
  facet normal -0 0 1
    outer loop
      vertex -25.0919 -2.76746 29
      vertex -27.65 8 29
      vertex -25.8056 -3.24436 29
    endloop
  endfacet
  facet normal -0 0 1
    outer loop
      vertex -24.25 -2.6 29
      vertex -27.65 8 29
      vertex -25.0919 -2.76746 29
    endloop
  endfacet
  facet normal -0 -0 1
    outer loop
      vertex -26.2825 3.9581 29
      vertex -27.65 8 29
      vertex -24.25 -2.6 29
    endloop
  endfacet
  facet normal 0 0 1
    outer loop
      vertex -22.2175 -3.9581 29
      vertex -22.05 -4.8 29
      vertex -20.15 -9 29
    endloop
  endfacet
  facet normal 0 0 1
    outer loop
      vertex -23.15 -0.75 29
      vertex -22.2175 -3.9581 29
      vertex -20.15 -9 29
    endloop
  endfacet
  facet normal 0 -0 1
    outer loop
      vertex -22.6944 -6.35563 29
      vertex -23.4081 -6.83253 29
      vertex -20.15 -9 29
    endloop
  endfacet
  facet normal -0 -0 1
    outer loop
      vertex -25.8056 3.24436 29
      vertex -26.2825 3.9581 29
      vertex -23.4081 -2.76746 29
    endloop
  endfacet
  facet normal -0 0 1
    outer loop
      vertex -20.15 -9 29
      vertex -24.25 -7 29
      vertex -26.65 -9 29
    endloop
  endfacet
  facet normal -0 0 1
    outer loop
      vertex -24.25 -7 29
      vertex -25.0919 -6.83253 29
      vertex -26.65 -9 29
    endloop
  endfacet
  facet normal -0 0 1
    outer loop
      vertex -25.0919 -6.83253 29
      vertex -25.8056 -6.35563 29
      vertex -26.65 -9 29
    endloop
  endfacet
  facet normal 0 0 1
    outer loop
      vertex -23.4081 -2.76746 29
      vertex -26.2825 3.9581 29
      vertex -24.25 -2.6 29
    endloop
  endfacet
  facet normal -0 -0 1
    outer loop
      vertex -26.45 4.8 29
      vertex -27.65 8 29
      vertex -26.2825 3.9581 29
    endloop
  endfacet
  facet normal 0 0 1
    outer loop
      vertex -25.0919 2.76746 29
      vertex -23.4081 -2.76746 29
      vertex -22.6944 -3.24436 29
    endloop
  endfacet
  facet normal 0 0 1
    outer loop
      vertex -24.25 2.6 29
      vertex -23.15 -0.75 29
      vertex -23.15 0.75 29
    endloop
  endfacet
  facet normal -0 0 1
    outer loop
      vertex -25.0919 6.83253 29
      vertex -27.65 8 29
      vertex -25.8056 6.35563 29
    endloop
  endfacet
  facet normal 0 0 1
    outer loop
      vertex -22.2175 5.6419 29
      vertex -22.05 4.8 29
      vertex -20.15 0.75 29
    endloop
  endfacet
  facet normal 0 0 1
    outer loop
      vertex -20.15 9 29
      vertex -27.65 8 29
      vertex -25.0919 6.83253 29
    endloop
  endfacet
  facet normal -0 -0 1
    outer loop
      vertex -24.25 2.6 29
      vertex -25.0919 2.76746 29
      vertex -23.15 -0.75 29
    endloop
  endfacet
  facet normal 0 0 1
    outer loop
      vertex -20.15 9 29
      vertex -24.25 7 29
      vertex -23.4081 6.83253 29
    endloop
  endfacet
  facet normal 0 -0 1
    outer loop
      vertex -22.05 4.8 29
      vertex -22.2175 3.9581 29
      vertex -20.15 0.75 29
    endloop
  endfacet
  facet normal 0 0 1
    outer loop
      vertex -20.15 9 29
      vertex -23.4081 6.83253 29
      vertex -22.6944 6.35563 29
    endloop
  endfacet
  facet normal 0 0 1
    outer loop
      vertex -20.15 9 29
      vertex -22.2175 5.6419 29
      vertex -20.15 0.75 29
    endloop
  endfacet
  facet normal 0 0 1
    outer loop
      vertex -20.15 9 29
      vertex -22.6944 6.35563 29
      vertex -22.2175 5.6419 29
    endloop
  endfacet
  facet normal 0 -0 1
    outer loop
      vertex -22.2175 -5.6419 29
      vertex -22.6944 -6.35563 29
      vertex -20.15 -9 29
    endloop
  endfacet
  facet normal 0 0 1
    outer loop
      vertex -26.45 -4.8 29
      vertex -26.2825 -3.9581 29
      vertex -27.65 8 29
    endloop
  endfacet
  facet normal 0 -0 1
    outer loop
      vertex -23.4081 2.76746 29
      vertex -24.25 2.6 29
      vertex -23.15 0.75 29
    endloop
  endfacet
  facet normal -0 -0 1
    outer loop
      vertex -23.15 -0.75 29
      vertex -25.0919 2.76746 29
      vertex -22.2175 -3.9581 29
    endloop
  endfacet
  facet normal 0 0 1
    outer loop
      vertex -25.0919 2.76746 29
      vertex -22.6944 -3.24436 29
      vertex -22.2175 -3.9581 29
    endloop
  endfacet
  facet normal 0 0 1
    outer loop
      vertex -26.2825 5.6419 29
      vertex -25.8056 6.35563 29
      vertex -27.65 8 29
    endloop
  endfacet
  facet normal 0 -0 1
    outer loop
      vertex -22.2175 3.9581 29
      vertex -22.6944 3.24436 29
      vertex -20.15 0.75 29
    endloop
  endfacet
  facet normal 0 0 1
    outer loop
      vertex -23.15 0.75 29
      vertex -20.15 0.75 29
      vertex -23.4081 2.76746 29
    endloop
  endfacet
  facet normal 0 0 1
    outer loop
      vertex -26.45 4.8 29
      vertex -26.2825 5.6419 29
      vertex -27.65 8 29
    endloop
  endfacet
  facet normal -0.382852 -0.92381 0
    outer loop
      vertex -27.357 -8.707 29
      vertex -27.357 -8.707 26.4
      vertex -26.65 -9 26.4
    endloop
  endfacet
  facet normal -0.382852 -0.92381 0
    outer loop
      vertex -26.65 -9 29
      vertex -27.357 -8.707 29
      vertex -26.65 -9 26.4
    endloop
  endfacet
  facet normal 0 -1 0
    outer loop
      vertex -26.65 -9 29
      vertex -26.65 -9 26.4
      vertex -20.15 -9 26.4
    endloop
  endfacet
  facet normal 0 -1 0
    outer loop
      vertex -20.15 -9 29
      vertex -26.65 -9 29
      vertex -20.15 -9 26.4
    endloop
  endfacet
  facet normal 1 0 -0
    outer loop
      vertex -20.15 -9 29
      vertex -20.15 -9 26.4
      vertex -20.15 9 26.4
    endloop
  endfacet
  facet normal 1 0 -0
    outer loop
      vertex -20.15 -0.75 29
      vertex -20.15 -9 29
      vertex -20.15 9 26.4
    endloop
  endfacet
  facet normal 1 0 -0
    outer loop
      vertex -20.15 0.75 29
      vertex -20.15 -0.75 29
      vertex -20.15 9 26.4
    endloop
  endfacet
  facet normal 1 0 0
    outer loop
      vertex -20.15 9 29
      vertex -20.15 0.75 29
      vertex -20.15 9 26.4
    endloop
  endfacet
  facet normal 1 0 0
    outer loop
      vertex -20.15 0.75 31.18
      vertex -20.15 -0.75 29
      vertex -20.15 0.75 29
    endloop
  endfacet
  facet normal 1 0 -0
    outer loop
      vertex -20.15 -0.75 31.18
      vertex -20.15 -0.75 29
      vertex -20.15 0.75 31.18
    endloop
  endfacet
  facet normal 0 1 0
    outer loop
      vertex -26.65 9 26.4
      vertex -26.65 9 29
      vertex -20.15 9 26.4
    endloop
  endfacet
  facet normal 0 1 0
    outer loop
      vertex -20.15 9 26.4
      vertex -26.65 9 29
      vertex -20.15 9 29
    endloop
  endfacet
  facet normal -0.382852 0.92381 0
    outer loop
      vertex -27.357 8.707 26.4
      vertex -27.357 8.707 29
      vertex -26.65 9 26.4
    endloop
  endfacet
  facet normal -0.382852 0.92381 0
    outer loop
      vertex -26.65 9 26.4
      vertex -27.357 8.707 29
      vertex -26.65 9 29
    endloop
  endfacet
  facet normal 0.980785 -0.19509 0
    outer loop
      vertex -26.2825 -3.9581 26.4
      vertex -26.2825 -3.9581 29
      vertex -26.45 -4.8 29
    endloop
  endfacet
  facet normal 0.980785 -0.19509 0
    outer loop
      vertex -26.45 -4.8 26.4
      vertex -26.2825 -3.9581 26.4
      vertex -26.45 -4.8 29
    endloop
  endfacet
  facet normal 0.980785 0.19509 0
    outer loop
      vertex -26.45 -4.8 29
      vertex -26.2825 -5.6419 29
      vertex -26.2825 -5.6419 26.4
    endloop
  endfacet
  facet normal 0.980785 0.19509 0
    outer loop
      vertex -26.45 -4.8 26.4
      vertex -26.45 -4.8 29
      vertex -26.2825 -5.6419 26.4
    endloop
  endfacet
  facet normal 0.83147 -0.55557 0
    outer loop
      vertex -25.8056 -3.24436 26.4
      vertex -25.8056 -3.24436 29
      vertex -26.2825 -3.9581 29
    endloop
  endfacet
  facet normal 0.83147 -0.55557 0
    outer loop
      vertex -26.2825 -3.9581 26.4
      vertex -25.8056 -3.24436 26.4
      vertex -26.2825 -3.9581 29
    endloop
  endfacet
  facet normal 0.55557 -0.83147 0
    outer loop
      vertex -25.0919 -2.76746 26.4
      vertex -25.0919 -2.76746 29
      vertex -25.8056 -3.24436 29
    endloop
  endfacet
  facet normal 0.55557 -0.83147 0
    outer loop
      vertex -25.8056 -3.24436 26.4
      vertex -25.0919 -2.76746 26.4
      vertex -25.8056 -3.24436 29
    endloop
  endfacet
  facet normal 0.19509 -0.980785 0
    outer loop
      vertex -24.25 -2.6 26.4
      vertex -24.25 -2.6 29
      vertex -25.0919 -2.76746 29
    endloop
  endfacet
  facet normal 0.19509 -0.980785 0
    outer loop
      vertex -25.0919 -2.76746 26.4
      vertex -24.25 -2.6 26.4
      vertex -25.0919 -2.76746 29
    endloop
  endfacet
  facet normal -0.19509 -0.980785 -0
    outer loop
      vertex -23.4081 -2.76746 26.4
      vertex -23.4081 -2.76746 29
      vertex -24.25 -2.6 29
    endloop
  endfacet
  facet normal -0.19509 -0.980785 -0
    outer loop
      vertex -24.25 -2.6 26.4
      vertex -23.4081 -2.76746 26.4
      vertex -24.25 -2.6 29
    endloop
  endfacet
  facet normal -0.55557 -0.83147 -0
    outer loop
      vertex -22.6944 -3.24436 26.4
      vertex -22.6944 -3.24436 29
      vertex -23.4081 -2.76746 29
    endloop
  endfacet
  facet normal -0.55557 -0.83147 -0
    outer loop
      vertex -23.4081 -2.76746 26.4
      vertex -22.6944 -3.24436 26.4
      vertex -23.4081 -2.76746 29
    endloop
  endfacet
  facet normal -0.83147 -0.55557 0
    outer loop
      vertex -22.2175 -3.9581 29
      vertex -22.6944 -3.24436 29
      vertex -22.2175 -3.9581 26.4
    endloop
  endfacet
  facet normal -0.83147 -0.55557 0
    outer loop
      vertex -22.2175 -3.9581 26.4
      vertex -22.6944 -3.24436 29
      vertex -22.6944 -3.24436 26.4
    endloop
  endfacet
  facet normal -0.980785 -0.19509 0
    outer loop
      vertex -22.05 -4.8 29
      vertex -22.2175 -3.9581 29
      vertex -22.05 -4.8 26.4
    endloop
  endfacet
  facet normal -0.980785 -0.19509 0
    outer loop
      vertex -22.05 -4.8 26.4
      vertex -22.2175 -3.9581 29
      vertex -22.2175 -3.9581 26.4
    endloop
  endfacet
  facet normal -0.980785 0.19509 0
    outer loop
      vertex -22.05 -4.8 29
      vertex -22.05 -4.8 26.4
      vertex -22.2175 -5.6419 29
    endloop
  endfacet
  facet normal -0.980785 0.19509 0
    outer loop
      vertex -22.2175 -5.6419 29
      vertex -22.05 -4.8 26.4
      vertex -22.2175 -5.6419 26.4
    endloop
  endfacet
  facet normal -0.83147 0.55557 0
    outer loop
      vertex -22.2175 -5.6419 29
      vertex -22.2175 -5.6419 26.4
      vertex -22.6944 -6.35563 29
    endloop
  endfacet
  facet normal -0.83147 0.55557 0
    outer loop
      vertex -22.6944 -6.35563 29
      vertex -22.2175 -5.6419 26.4
      vertex -22.6944 -6.35563 26.4
    endloop
  endfacet
  facet normal -0.55557 0.83147 0
    outer loop
      vertex -22.6944 -6.35563 29
      vertex -22.6944 -6.35563 26.4
      vertex -23.4081 -6.83253 29
    endloop
  endfacet
  facet normal -0.55557 0.83147 0
    outer loop
      vertex -23.4081 -6.83253 29
      vertex -22.6944 -6.35563 26.4
      vertex -23.4081 -6.83253 26.4
    endloop
  endfacet
  facet normal -0.19509 0.980785 0
    outer loop
      vertex -23.4081 -6.83253 29
      vertex -23.4081 -6.83253 26.4
      vertex -24.25 -7 29
    endloop
  endfacet
  facet normal -0.19509 0.980785 0
    outer loop
      vertex -24.25 -7 29
      vertex -23.4081 -6.83253 26.4
      vertex -24.25 -7 26.4
    endloop
  endfacet
  facet normal 0.19509 0.980785 -0
    outer loop
      vertex -24.25 -7 29
      vertex -24.25 -7 26.4
      vertex -25.0919 -6.83253 29
    endloop
  endfacet
  facet normal 0.19509 0.980785 -0
    outer loop
      vertex -25.0919 -6.83253 29
      vertex -24.25 -7 26.4
      vertex -25.0919 -6.83253 26.4
    endloop
  endfacet
  facet normal 0.55557 0.83147 -0
    outer loop
      vertex -25.0919 -6.83253 29
      vertex -25.0919 -6.83253 26.4
      vertex -25.8056 -6.35563 29
    endloop
  endfacet
  facet normal 0.55557 0.83147 -0
    outer loop
      vertex -25.8056 -6.35563 29
      vertex -25.0919 -6.83253 26.4
      vertex -25.8056 -6.35563 26.4
    endloop
  endfacet
  facet normal 0.83147 0.55557 0
    outer loop
      vertex -26.2825 -5.6419 29
      vertex -25.8056 -6.35563 29
      vertex -25.8056 -6.35563 26.4
    endloop
  endfacet
  facet normal 0.83147 0.55557 0
    outer loop
      vertex -26.2825 -5.6419 26.4
      vertex -26.2825 -5.6419 29
      vertex -25.8056 -6.35563 26.4
    endloop
  endfacet
  facet normal 0.980785 -0.19509 0
    outer loop
      vertex -26.2825 5.6419 26.4
      vertex -26.2825 5.6419 29
      vertex -26.45 4.8 29
    endloop
  endfacet
  facet normal 0.980785 -0.19509 0
    outer loop
      vertex -26.45 4.8 26.4
      vertex -26.2825 5.6419 26.4
      vertex -26.45 4.8 29
    endloop
  endfacet
  facet normal 0.980785 0.19509 0
    outer loop
      vertex -26.45 4.8 29
      vertex -26.2825 3.9581 29
      vertex -26.2825 3.9581 26.4
    endloop
  endfacet
  facet normal 0.980785 0.19509 0
    outer loop
      vertex -26.45 4.8 26.4
      vertex -26.45 4.8 29
      vertex -26.2825 3.9581 26.4
    endloop
  endfacet
  facet normal 0.83147 -0.55557 0
    outer loop
      vertex -25.8056 6.35563 26.4
      vertex -25.8056 6.35563 29
      vertex -26.2825 5.6419 29
    endloop
  endfacet
  facet normal 0.83147 -0.55557 0
    outer loop
      vertex -26.2825 5.6419 26.4
      vertex -25.8056 6.35563 26.4
      vertex -26.2825 5.6419 29
    endloop
  endfacet
  facet normal 0.55557 -0.83147 0
    outer loop
      vertex -25.0919 6.83253 26.4
      vertex -25.0919 6.83253 29
      vertex -25.8056 6.35563 29
    endloop
  endfacet
  facet normal 0.55557 -0.83147 0
    outer loop
      vertex -25.8056 6.35563 26.4
      vertex -25.0919 6.83253 26.4
      vertex -25.8056 6.35563 29
    endloop
  endfacet
  facet normal 0.19509 -0.980785 0
    outer loop
      vertex -24.25 7 26.4
      vertex -24.25 7 29
      vertex -25.0919 6.83253 29
    endloop
  endfacet
  facet normal 0.19509 -0.980785 0
    outer loop
      vertex -25.0919 6.83253 26.4
      vertex -24.25 7 26.4
      vertex -25.0919 6.83253 29
    endloop
  endfacet
  facet normal -0.19509 -0.980785 -0
    outer loop
      vertex -23.4081 6.83253 26.4
      vertex -23.4081 6.83253 29
      vertex -24.25 7 29
    endloop
  endfacet
  facet normal -0.19509 -0.980785 -0
    outer loop
      vertex -24.25 7 26.4
      vertex -23.4081 6.83253 26.4
      vertex -24.25 7 29
    endloop
  endfacet
  facet normal -0.55557 -0.83147 -0
    outer loop
      vertex -22.6944 6.35563 26.4
      vertex -22.6944 6.35563 29
      vertex -23.4081 6.83253 29
    endloop
  endfacet
  facet normal -0.55557 -0.83147 -0
    outer loop
      vertex -23.4081 6.83253 26.4
      vertex -22.6944 6.35563 26.4
      vertex -23.4081 6.83253 29
    endloop
  endfacet
  facet normal -0.83147 -0.55557 0
    outer loop
      vertex -22.2175 5.6419 29
      vertex -22.6944 6.35563 29
      vertex -22.2175 5.6419 26.4
    endloop
  endfacet
  facet normal -0.83147 -0.55557 0
    outer loop
      vertex -22.2175 5.6419 26.4
      vertex -22.6944 6.35563 29
      vertex -22.6944 6.35563 26.4
    endloop
  endfacet
  facet normal -0.980785 -0.19509 0
    outer loop
      vertex -22.05 4.8 29
      vertex -22.2175 5.6419 29
      vertex -22.05 4.8 26.4
    endloop
  endfacet
  facet normal -0.980785 -0.19509 0
    outer loop
      vertex -22.05 4.8 26.4
      vertex -22.2175 5.6419 29
      vertex -22.2175 5.6419 26.4
    endloop
  endfacet
  facet normal -0.980785 0.19509 0
    outer loop
      vertex -22.05 4.8 29
      vertex -22.05 4.8 26.4
      vertex -22.2175 3.9581 29
    endloop
  endfacet
  facet normal -0.980785 0.19509 0
    outer loop
      vertex -22.2175 3.9581 29
      vertex -22.05 4.8 26.4
      vertex -22.2175 3.9581 26.4
    endloop
  endfacet
  facet normal -0.83147 0.55557 0
    outer loop
      vertex -22.2175 3.9581 29
      vertex -22.2175 3.9581 26.4
      vertex -22.6944 3.24436 29
    endloop
  endfacet
  facet normal -0.83147 0.55557 0
    outer loop
      vertex -22.6944 3.24436 29
      vertex -22.2175 3.9581 26.4
      vertex -22.6944 3.24436 26.4
    endloop
  endfacet
  facet normal -0.55557 0.83147 0
    outer loop
      vertex -22.6944 3.24436 29
      vertex -22.6944 3.24436 26.4
      vertex -23.4081 2.76746 29
    endloop
  endfacet
  facet normal -0.55557 0.83147 0
    outer loop
      vertex -23.4081 2.76746 29
      vertex -22.6944 3.24436 26.4
      vertex -23.4081 2.76746 26.4
    endloop
  endfacet
  facet normal -0.19509 0.980785 0
    outer loop
      vertex -23.4081 2.76746 29
      vertex -23.4081 2.76746 26.4
      vertex -24.25 2.6 29
    endloop
  endfacet
  facet normal -0.19509 0.980785 0
    outer loop
      vertex -24.25 2.6 29
      vertex -23.4081 2.76746 26.4
      vertex -24.25 2.6 26.4
    endloop
  endfacet
  facet normal 0.19509 0.980785 -0
    outer loop
      vertex -24.25 2.6 29
      vertex -24.25 2.6 26.4
      vertex -25.0919 2.76746 29
    endloop
  endfacet
  facet normal 0.19509 0.980785 -0
    outer loop
      vertex -25.0919 2.76746 29
      vertex -24.25 2.6 26.4
      vertex -25.0919 2.76746 26.4
    endloop
  endfacet
  facet normal 0.55557 0.83147 -0
    outer loop
      vertex -25.0919 2.76746 29
      vertex -25.0919 2.76746 26.4
      vertex -25.8056 3.24436 29
    endloop
  endfacet
  facet normal 0.55557 0.83147 -0
    outer loop
      vertex -25.8056 3.24436 29
      vertex -25.0919 2.76746 26.4
      vertex -25.8056 3.24436 26.4
    endloop
  endfacet
  facet normal 0.83147 0.55557 0
    outer loop
      vertex -26.2825 3.9581 29
      vertex -25.8056 3.24436 29
      vertex -25.8056 3.24436 26.4
    endloop
  endfacet
  facet normal 0.83147 0.55557 0
    outer loop
      vertex -26.2825 3.9581 26.4
      vertex -26.2825 3.9581 29
      vertex -25.8056 3.24436 26.4
    endloop
  endfacet
  facet normal 0 1 -5.09277e-17
    outer loop
      vertex -20.15 0.75 29
      vertex -23.15 0.75 29
      vertex -20.15 0.75 31.18
    endloop
  endfacet
  facet normal -0.587851 0 0.808969
    outer loop
      vertex -23.15 0.75 29
      vertex -23.15 -0.75 29
      vertex -20.15 -0.75 31.18
    endloop
  endfacet
  facet normal -0.587851 0 0.808969
    outer loop
      vertex -20.15 0.75 31.18
      vertex -23.15 0.75 29
      vertex -20.15 -0.75 31.18
    endloop
  endfacet
  facet normal 0 -1 5.09277e-17
    outer loop
      vertex -20.15 -0.75 31.18
      vertex -23.15 -0.75 29
      vertex -20.15 -0.75 29
    endloop
  endfacet
  facet normal -1 1.97373e-16 0
    outer loop
      vertex 20.15 -9 26.4
      vertex 20.15 -9 29
      vertex 20.15 9 26.4
    endloop
  endfacet
  facet normal -1 0 -1.36643e-15
    outer loop
      vertex 20.15 9 26.4
      vertex 20.15 -9 29
      vertex 20.15 -0.75 29
    endloop
  endfacet
  facet normal -1 2.36848e-15 0
    outer loop
      vertex 20.15 0.75 29
      vertex 20.15 -0.75 29
      vertex 20.15 -0.75 31.18
    endloop
  endfacet
  facet normal -1 2.36848e-15 7.51536e-15
    outer loop
      vertex 20.15 9 26.4
      vertex 20.15 -0.75 29
      vertex 20.15 0.75 29
    endloop
  endfacet
  facet normal -1 0 0
    outer loop
      vertex 20.15 9 29
      vertex 20.15 9 26.4
      vertex 20.15 0.75 29
    endloop
  endfacet
  facet normal -1 2.36848e-15 1.20621e-31
    outer loop
      vertex 20.15 0.75 29
      vertex 20.15 -0.75 31.18
      vertex 20.15 0.75 31.18
    endloop
  endfacet
  facet normal 0 -1 0
    outer loop
      vertex 20.15 -9 29
      vertex 20.15 -9 26.4
      vertex 26.65 -9 26.4
    endloop
  endfacet
  facet normal 0 -1 0
    outer loop
      vertex 26.65 -9 29
      vertex 20.15 -9 29
      vertex 26.65 -9 26.4
    endloop
  endfacet
  facet normal 0 -0 -1
    outer loop
      vertex 25.0919 6.83253 26.4
      vertex 20.15 9 26.4
      vertex 26.65 9 26.4
    endloop
  endfacet
  facet normal 0 0 -1
    outer loop
      vertex 26.65 -9 26.4
      vertex 26.65 9 26.4
      vertex 27.357 8.707 26.4
    endloop
  endfacet
  facet normal 0 0 -1
    outer loop
      vertex 26.65 -9 26.4
      vertex 27.357 8.707 26.4
      vertex 27.65 8 26.4
    endloop
  endfacet
  facet normal 0 0 -1
    outer loop
      vertex 26.65 -9 26.4
      vertex 27.65 8 26.4
      vertex 27.65 -8 26.4
    endloop
  endfacet
  facet normal 0 0 -1
    outer loop
      vertex 26.65 -9 26.4
      vertex 27.65 -8 26.4
      vertex 27.357 -8.707 26.4
    endloop
  endfacet
  facet normal 0 0 -1
    outer loop
      vertex 20.15 -9 26.4
      vertex 20.15 9 26.4
      vertex 22.05 -4.8 26.4
    endloop
  endfacet
  facet normal 0 -0 -1
    outer loop
      vertex 23.4081 -2.76746 26.4
      vertex 20.15 9 26.4
      vertex 24.25 -2.6 26.4
    endloop
  endfacet
  facet normal 0 0 -1
    outer loop
      vertex 20.15 -9 26.4
      vertex 22.05 -4.8 26.4
      vertex 22.2175 -5.6419 26.4
    endloop
  endfacet
  facet normal 0 0 -1
    outer loop
      vertex 20.15 -9 26.4
      vertex 22.2175 -5.6419 26.4
      vertex 22.6944 -6.35563 26.4
    endloop
  endfacet
  facet normal -0 0 -1
    outer loop
      vertex 20.15 -9 26.4
      vertex 22.6944 -6.35563 26.4
      vertex 26.65 -9 26.4
    endloop
  endfacet
  facet normal 0 0 -1
    outer loop
      vertex 22.6944 -6.35563 26.4
      vertex 23.4081 -6.83253 26.4
      vertex 26.65 -9 26.4
    endloop
  endfacet
  facet normal 0 0 -1
    outer loop
      vertex 25.0919 -6.83253 26.4
      vertex 26.65 -9 26.4
      vertex 24.25 -7 26.4
    endloop
  endfacet
  facet normal 0 -0 -1
    outer loop
      vertex 22.05 4.8 26.4
      vertex 20.15 9 26.4
      vertex 22.2175 5.6419 26.4
    endloop
  endfacet
  facet normal 0 0 -1
    outer loop
      vertex 25.8056 -6.35563 26.4
      vertex 26.65 -9 26.4
      vertex 25.0919 -6.83253 26.4
    endloop
  endfacet
  facet normal -0 0 -1
    outer loop
      vertex 26.2825 -3.9581 26.4
      vertex 26.65 9 26.4
      vertex 26.45 -4.8 26.4
    endloop
  endfacet
  facet normal -0 -0 -1
    outer loop
      vertex 24.25 -2.6 26.4
      vertex 22.2175 3.9581 26.4
      vertex 25.0919 -2.76746 26.4
    endloop
  endfacet
  facet normal 0 0 -1
    outer loop
      vertex 26.65 -9 26.4
      vertex 25.8056 -6.35563 26.4
      vertex 26.2825 -5.6419 26.4
    endloop
  endfacet
  facet normal -0 0 -1
    outer loop
      vertex 25.8056 -3.24436 26.4
      vertex 26.45 4.8 26.4
      vertex 26.2825 -3.9581 26.4
    endloop
  endfacet
  facet normal 0 0 -1
    outer loop
      vertex 26.65 -9 26.4
      vertex 26.2825 -5.6419 26.4
      vertex 26.45 -4.8 26.4
    endloop
  endfacet
  facet normal 0 -0 -1
    outer loop
      vertex 26.65 -9 26.4
      vertex 26.45 -4.8 26.4
      vertex 26.65 9 26.4
    endloop
  endfacet
  facet normal -0 0 -1
    outer loop
      vertex 26.2825 5.6419 26.4
      vertex 26.65 9 26.4
      vertex 26.45 4.8 26.4
    endloop
  endfacet
  facet normal 0 0 -1
    outer loop
      vertex 22.2175 3.9581 26.4
      vertex 20.15 9 26.4
      vertex 22.05 4.8 26.4
    endloop
  endfacet
  facet normal 0 0 -1
    outer loop
      vertex 24.25 -2.6 26.4
      vertex 20.15 9 26.4
      vertex 22.2175 3.9581 26.4
    endloop
  endfacet
  facet normal 0 0 -1
    outer loop
      vertex 22.6944 3.24436 26.4
      vertex 25.0919 -2.76746 26.4
      vertex 22.2175 3.9581 26.4
    endloop
  endfacet
  facet normal 0 0 -1
    outer loop
      vertex 26.45 4.8 26.4
      vertex 25.8056 -3.24436 26.4
      vertex 26.2825 3.9581 26.4
    endloop
  endfacet
  facet normal 0 -0 -1
    outer loop
      vertex 22.6944 -3.24436 26.4
      vertex 20.15 9 26.4
      vertex 23.4081 -2.76746 26.4
    endloop
  endfacet
  facet normal 0 -0 -1
    outer loop
      vertex 22.2175 -3.9581 26.4
      vertex 20.15 9 26.4
      vertex 22.6944 -3.24436 26.4
    endloop
  endfacet
  facet normal 0 -0 -1
    outer loop
      vertex 22.05 -4.8 26.4
      vertex 20.15 9 26.4
      vertex 22.2175 -3.9581 26.4
    endloop
  endfacet
  facet normal 0 0 -1
    outer loop
      vertex 23.4081 2.76746 26.4
      vertex 25.8056 -3.24436 26.4
      vertex 22.6944 3.24436 26.4
    endloop
  endfacet
  facet normal -0 -0 -1
    outer loop
      vertex 25.0919 -2.76746 26.4
      vertex 22.6944 3.24436 26.4
      vertex 25.8056 -3.24436 26.4
    endloop
  endfacet
  facet normal 0 0 -1
    outer loop
      vertex 25.8056 -3.24436 26.4
      vertex 23.4081 2.76746 26.4
      vertex 24.25 2.6 26.4
    endloop
  endfacet
  facet normal 0 0 -1
    outer loop
      vertex 25.8056 -3.24436 26.4
      vertex 24.25 2.6 26.4
      vertex 25.0919 2.76746 26.4
    endloop
  endfacet
  facet normal 0 0 -1
    outer loop
      vertex 25.8056 -3.24436 26.4
      vertex 25.0919 2.76746 26.4
      vertex 25.8056 3.24436 26.4
    endloop
  endfacet
  facet normal 0 -0 -1
    outer loop
      vertex 25.8056 -3.24436 26.4
      vertex 25.8056 3.24436 26.4
      vertex 26.2825 3.9581 26.4
    endloop
  endfacet
  facet normal 0 0 -1
    outer loop
      vertex 26.2825 -3.9581 26.4
      vertex 26.45 4.8 26.4
      vertex 26.65 9 26.4
    endloop
  endfacet
  facet normal -0 0 -1
    outer loop
      vertex 25.8056 6.35563 26.4
      vertex 26.65 9 26.4
      vertex 26.2825 5.6419 26.4
    endloop
  endfacet
  facet normal -0 0 -1
    outer loop
      vertex 25.0919 6.83253 26.4
      vertex 26.65 9 26.4
      vertex 25.8056 6.35563 26.4
    endloop
  endfacet
  facet normal -0 -0 -1
    outer loop
      vertex 24.25 7 26.4
      vertex 20.15 9 26.4
      vertex 25.0919 6.83253 26.4
    endloop
  endfacet
  facet normal 0 -0 -1
    outer loop
      vertex 23.4081 6.83253 26.4
      vertex 20.15 9 26.4
      vertex 24.25 7 26.4
    endloop
  endfacet
  facet normal 0 -0 -1
    outer loop
      vertex 22.6944 6.35563 26.4
      vertex 20.15 9 26.4
      vertex 23.4081 6.83253 26.4
    endloop
  endfacet
  facet normal 0 -0 -1
    outer loop
      vertex 22.2175 5.6419 26.4
      vertex 20.15 9 26.4
      vertex 22.6944 6.35563 26.4
    endloop
  endfacet
  facet normal 0 0 -1
    outer loop
      vertex 24.25 -7 26.4
      vertex 26.65 -9 26.4
      vertex 23.4081 -6.83253 26.4
    endloop
  endfacet
  facet normal 2.73286e-16 1 0
    outer loop
      vertex 20.15 9 26.4
      vertex 20.15 9 29
      vertex 26.65 9 26.4
    endloop
  endfacet
  facet normal 2.73286e-16 1 0
    outer loop
      vertex 26.65 9 26.4
      vertex 20.15 9 29
      vertex 26.65 9 29
    endloop
  endfacet
  facet normal 0 -0 1
    outer loop
      vertex 23.4081 -6.83253 29
      vertex 20.15 -9 29
      vertex 26.65 -9 29
    endloop
  endfacet
  facet normal 0 -0 1
    outer loop
      vertex 25.8056 -6.35563 29
      vertex 25.0919 -6.83253 29
      vertex 27.357 -8.707 29
    endloop
  endfacet
  facet normal 0 0 1
    outer loop
      vertex 22.2175 -3.9581 29
      vertex 22.6944 -3.24436 29
      vertex 20.15 -0.75 29
    endloop
  endfacet
  facet normal 0 0 1
    outer loop
      vertex 25.8056 6.35563 29
      vertex 26.2825 5.6419 29
      vertex 27.65 8 29
    endloop
  endfacet
  facet normal 0 -0 1
    outer loop
      vertex 26.2825 -5.6419 29
      vertex 25.8056 -6.35563 29
      vertex 27.65 -8 29
    endloop
  endfacet
  facet normal 0 -0 1
    outer loop
      vertex 20.15 -0.75 29
      vertex 20.15 -9 29
      vertex 22.2175 -5.6419 29
    endloop
  endfacet
  facet normal -0 -0 1
    outer loop
      vertex 24.25 -7 29
      vertex 23.4081 -6.83253 29
      vertex 26.65 -9 29
    endloop
  endfacet
  facet normal 0 0 1
    outer loop
      vertex 20.15 -0.75 29
      vertex 22.2175 -5.6419 29
      vertex 22.05 -4.8 29
    endloop
  endfacet
  facet normal 0 0 1
    outer loop
      vertex 24.25 -2.6 29
      vertex 23.15 0.75 29
      vertex 23.15 -0.75 29
    endloop
  endfacet
  facet normal 0 0 1
    outer loop
      vertex 20.15 -0.75 29
      vertex 22.05 -4.8 29
      vertex 22.2175 -3.9581 29
    endloop
  endfacet
  facet normal 0 -0 1
    outer loop
      vertex 25.0919 -6.83253 29
      vertex 24.25 -7 29
      vertex 26.65 -9 29
    endloop
  endfacet
  facet normal -0 -0 1
    outer loop
      vertex 23.15 -0.75 29
      vertex 20.15 -0.75 29
      vertex 23.4081 -2.76746 29
    endloop
  endfacet
  facet normal 0 0 1
    outer loop
      vertex 23.15 -0.75 29
      vertex 23.4081 -2.76746 29
      vertex 24.25 -2.6 29
    endloop
  endfacet
  facet normal 0 0 1
    outer loop
      vertex 25.8056 3.24436 29
      vertex 23.15 0.75 29
      vertex 25.0919 -2.76746 29
    endloop
  endfacet
  facet normal 0 0 1
    outer loop
      vertex 27.65 8 29
      vertex 25.0919 -2.76746 29
      vertex 25.8056 -3.24436 29
    endloop
  endfacet
  facet normal 0 0 1
    outer loop
      vertex 27.65 8 29
      vertex 26.2825 -3.9581 29
      vertex 27.65 -8 29
    endloop
  endfacet
  facet normal 0 0 1
    outer loop
      vertex 27.65 8 29
      vertex 25.8056 -3.24436 29
      vertex 26.2825 -3.9581 29
    endloop
  endfacet
  facet normal 0 0 1
    outer loop
      vertex 26.2825 -3.9581 29
      vertex 26.45 -4.8 29
      vertex 27.65 -8 29
    endloop
  endfacet
  facet normal 0 -0 1
    outer loop
      vertex 26.45 -4.8 29
      vertex 26.2825 -5.6419 29
      vertex 27.65 -8 29
    endloop
  endfacet
  facet normal -0 0 1
    outer loop
      vertex 27.65 -8 29
      vertex 25.8056 -6.35563 29
      vertex 27.357 -8.707 29
    endloop
  endfacet
  facet normal -0 0 1
    outer loop
      vertex 27.357 -8.707 29
      vertex 25.0919 -6.83253 29
      vertex 26.65 -9 29
    endloop
  endfacet
  facet normal 0 0 1
    outer loop
      vertex 22.6944 -3.24436 29
      vertex 23.4081 -2.76746 29
      vertex 20.15 -0.75 29
    endloop
  endfacet
  facet normal 0 -0 1
    outer loop
      vertex 22.6944 -6.35563 29
      vertex 20.15 -9 29
      vertex 23.4081 -6.83253 29
    endloop
  endfacet
  facet normal 0 -0 1
    outer loop
      vertex 22.2175 -5.6419 29
      vertex 20.15 -9 29
      vertex 22.6944 -6.35563 29
    endloop
  endfacet
  facet normal 0 0 1
    outer loop
      vertex 25.0919 6.83253 29
      vertex 27.357 8.707 29
      vertex 26.65 9 29
    endloop
  endfacet
  facet normal 0 -0 1
    outer loop
      vertex 20.15 9 29
      vertex 20.15 0.75 29
      vertex 22.2175 3.9581 29
    endloop
  endfacet
  facet normal 0 0 1
    outer loop
      vertex 25.0919 6.83253 29
      vertex 25.8056 6.35563 29
      vertex 27.357 8.707 29
    endloop
  endfacet
  facet normal 0 0 1
    outer loop
      vertex 20.15 9 29
      vertex 22.2175 3.9581 29
      vertex 22.05 4.8 29
    endloop
  endfacet
  facet normal 0 0 1
    outer loop
      vertex 20.15 9 29
      vertex 22.05 4.8 29
      vertex 22.2175 5.6419 29
    endloop
  endfacet
  facet normal 0 0 1
    outer loop
      vertex 20.15 9 29
      vertex 22.6944 6.35563 29
      vertex 26.65 9 29
    endloop
  endfacet
  facet normal 0 0 1
    outer loop
      vertex 20.15 9 29
      vertex 22.2175 5.6419 29
      vertex 22.6944 6.35563 29
    endloop
  endfacet
  facet normal 0 0 1
    outer loop
      vertex 22.6944 6.35563 29
      vertex 23.4081 6.83253 29
      vertex 26.65 9 29
    endloop
  endfacet
  facet normal 0 0 1
    outer loop
      vertex 23.4081 6.83253 29
      vertex 24.25 7 29
      vertex 26.65 9 29
    endloop
  endfacet
  facet normal 0 -0 1
    outer loop
      vertex 27.357 8.707 29
      vertex 25.8056 6.35563 29
      vertex 27.65 8 29
    endloop
  endfacet
  facet normal 0 0 1
    outer loop
      vertex 24.25 -2.6 29
      vertex 25.0919 -2.76746 29
      vertex 23.15 0.75 29
    endloop
  endfacet
  facet normal 0 0 1
    outer loop
      vertex 25.0919 2.76746 29
      vertex 24.25 2.6 29
      vertex 23.15 0.75 29
    endloop
  endfacet
  facet normal 0 0 1
    outer loop
      vertex 27.65 8 29
      vertex 26.45 4.8 29
      vertex 25.0919 -2.76746 29
    endloop
  endfacet
  facet normal 0 0 1
    outer loop
      vertex 27.65 8 29
      vertex 26.2825 5.6419 29
      vertex 26.45 4.8 29
    endloop
  endfacet
  facet normal 0 0 1
    outer loop
      vertex 26.45 4.8 29
      vertex 26.2825 3.9581 29
      vertex 25.0919 -2.76746 29
    endloop
  endfacet
  facet normal 0 -0 1
    outer loop
      vertex 25.0919 2.76746 29
      vertex 23.15 0.75 29
      vertex 25.8056 3.24436 29
    endloop
  endfacet
  facet normal -0 0 1
    outer loop
      vertex 23.4081 2.76746 29
      vertex 22.6944 3.24436 29
      vertex 20.15 0.75 29
    endloop
  endfacet
  facet normal 0 0 1
    outer loop
      vertex 26.2825 3.9581 29
      vertex 25.8056 3.24436 29
      vertex 25.0919 -2.76746 29
    endloop
  endfacet
  facet normal -0 0 1
    outer loop
      vertex 22.6944 3.24436 29
      vertex 22.2175 3.9581 29
      vertex 20.15 0.75 29
    endloop
  endfacet
  facet normal 0 0 1
    outer loop
      vertex 24.25 7 29
      vertex 25.0919 6.83253 29
      vertex 26.65 9 29
    endloop
  endfacet
  facet normal 0 0 1
    outer loop
      vertex 20.15 0.75 29
      vertex 24.25 2.6 29
      vertex 23.4081 2.76746 29
    endloop
  endfacet
  facet normal 0 0 1
    outer loop
      vertex 20.15 0.75 29
      vertex 23.15 0.75 29
      vertex 24.25 2.6 29
    endloop
  endfacet
  facet normal 1.11022e-16 1 5.09277e-17
    outer loop
      vertex 20.15 0.75 29
      vertex 20.15 0.75 31.18
      vertex 23.15 0.75 29
    endloop
  endfacet
  facet normal 0.587851 -1.39231e-15 0.808969
    outer loop
      vertex 20.15 0.75 31.18
      vertex 20.15 -0.75 31.18
      vertex 23.15 -0.75 29
    endloop
  endfacet
  facet normal 0.587851 -0 0.808969
    outer loop
      vertex 23.15 0.75 29
      vertex 20.15 0.75 31.18
      vertex 23.15 -0.75 29
    endloop
  endfacet
  facet normal -1.11022e-16 -1 -5.09277e-17
    outer loop
      vertex 23.15 -0.75 29
      vertex 20.15 -0.75 31.18
      vertex 20.15 -0.75 29
    endloop
  endfacet
  facet normal 0.382852 -0.92381 0
    outer loop
      vertex 26.65 -9 29
      vertex 26.65 -9 26.4
      vertex 27.357 -8.707 26.4
    endloop
  endfacet
  facet normal 0.382852 -0.92381 0
    outer loop
      vertex 27.357 -8.707 29
      vertex 26.65 -9 29
      vertex 27.357 -8.707 26.4
    endloop
  endfacet
  facet normal 0.92381 -0.382852 0
    outer loop
      vertex 27.357 -8.707 29
      vertex 27.357 -8.707 26.4
      vertex 27.65 -8 26.4
    endloop
  endfacet
  facet normal 0.92381 -0.382852 0
    outer loop
      vertex 27.65 -8 29
      vertex 27.357 -8.707 29
      vertex 27.65 -8 26.4
    endloop
  endfacet
  facet normal 1 -2.22045e-16 0
    outer loop
      vertex 27.65 -8 29
      vertex 27.65 -8 26.4
      vertex 27.65 8 26.4
    endloop
  endfacet
  facet normal 1 -2.22045e-16 0
    outer loop
      vertex 27.65 8 29
      vertex 27.65 -8 29
      vertex 27.65 8 26.4
    endloop
  endfacet
  facet normal 0.92381 0.382852 0
    outer loop
      vertex 27.65 8 26.4
      vertex 27.357 8.707 26.4
      vertex 27.357 8.707 29
    endloop
  endfacet
  facet normal 0.92381 0.382852 -0
    outer loop
      vertex 27.65 8 29
      vertex 27.65 8 26.4
      vertex 27.357 8.707 29
    endloop
  endfacet
  facet normal 0.382852 0.92381 0
    outer loop
      vertex 26.65 9 26.4
      vertex 26.65 9 29
      vertex 27.357 8.707 26.4
    endloop
  endfacet
  facet normal 0.382852 0.92381 0
    outer loop
      vertex 27.357 8.707 26.4
      vertex 26.65 9 29
      vertex 27.357 8.707 29
    endloop
  endfacet
  facet normal 0.980785 0.19509 0
    outer loop
      vertex 22.05 -4.8 29
      vertex 22.2175 -5.6419 29
      vertex 22.2175 -5.6419 26.4
    endloop
  endfacet
  facet normal 0.980785 0.19509 0
    outer loop
      vertex 22.05 -4.8 26.4
      vertex 22.05 -4.8 29
      vertex 22.2175 -5.6419 26.4
    endloop
  endfacet
  facet normal 0.980785 -0.19509 0
    outer loop
      vertex 22.2175 -3.9581 26.4
      vertex 22.2175 -3.9581 29
      vertex 22.05 -4.8 29
    endloop
  endfacet
  facet normal 0.980785 -0.19509 0
    outer loop
      vertex 22.05 -4.8 26.4
      vertex 22.2175 -3.9581 26.4
      vertex 22.05 -4.8 29
    endloop
  endfacet
  facet normal 0.83147 -0.55557 0
    outer loop
      vertex 22.6944 -3.24436 26.4
      vertex 22.6944 -3.24436 29
      vertex 22.2175 -3.9581 29
    endloop
  endfacet
  facet normal 0.83147 -0.55557 0
    outer loop
      vertex 22.2175 -3.9581 26.4
      vertex 22.6944 -3.24436 26.4
      vertex 22.2175 -3.9581 29
    endloop
  endfacet
  facet normal 0.55557 -0.83147 0
    outer loop
      vertex 23.4081 -2.76746 26.4
      vertex 23.4081 -2.76746 29
      vertex 22.6944 -3.24436 29
    endloop
  endfacet
  facet normal 0.55557 -0.83147 0
    outer loop
      vertex 22.6944 -3.24436 26.4
      vertex 23.4081 -2.76746 26.4
      vertex 22.6944 -3.24436 29
    endloop
  endfacet
  facet normal 0.19509 -0.980785 0
    outer loop
      vertex 24.25 -2.6 26.4
      vertex 24.25 -2.6 29
      vertex 23.4081 -2.76746 29
    endloop
  endfacet
  facet normal 0.19509 -0.980785 0
    outer loop
      vertex 23.4081 -2.76746 26.4
      vertex 24.25 -2.6 26.4
      vertex 23.4081 -2.76746 29
    endloop
  endfacet
  facet normal -0.19509 -0.980785 -0
    outer loop
      vertex 25.0919 -2.76746 26.4
      vertex 25.0919 -2.76746 29
      vertex 24.25 -2.6 29
    endloop
  endfacet
  facet normal -0.19509 -0.980785 -0
    outer loop
      vertex 24.25 -2.6 26.4
      vertex 25.0919 -2.76746 26.4
      vertex 24.25 -2.6 29
    endloop
  endfacet
  facet normal -0.55557 -0.83147 -0
    outer loop
      vertex 25.8056 -3.24436 26.4
      vertex 25.8056 -3.24436 29
      vertex 25.0919 -2.76746 29
    endloop
  endfacet
  facet normal -0.55557 -0.83147 -0
    outer loop
      vertex 25.0919 -2.76746 26.4
      vertex 25.8056 -3.24436 26.4
      vertex 25.0919 -2.76746 29
    endloop
  endfacet
  facet normal -0.83147 -0.55557 0
    outer loop
      vertex 26.2825 -3.9581 29
      vertex 25.8056 -3.24436 29
      vertex 26.2825 -3.9581 26.4
    endloop
  endfacet
  facet normal -0.83147 -0.55557 0
    outer loop
      vertex 26.2825 -3.9581 26.4
      vertex 25.8056 -3.24436 29
      vertex 25.8056 -3.24436 26.4
    endloop
  endfacet
  facet normal -0.980785 -0.19509 0
    outer loop
      vertex 26.45 -4.8 29
      vertex 26.2825 -3.9581 29
      vertex 26.45 -4.8 26.4
    endloop
  endfacet
  facet normal -0.980785 -0.19509 0
    outer loop
      vertex 26.45 -4.8 26.4
      vertex 26.2825 -3.9581 29
      vertex 26.2825 -3.9581 26.4
    endloop
  endfacet
  facet normal -0.980785 0.19509 0
    outer loop
      vertex 26.45 -4.8 29
      vertex 26.45 -4.8 26.4
      vertex 26.2825 -5.6419 29
    endloop
  endfacet
  facet normal -0.980785 0.19509 0
    outer loop
      vertex 26.2825 -5.6419 29
      vertex 26.45 -4.8 26.4
      vertex 26.2825 -5.6419 26.4
    endloop
  endfacet
  facet normal -0.83147 0.55557 0
    outer loop
      vertex 26.2825 -5.6419 29
      vertex 26.2825 -5.6419 26.4
      vertex 25.8056 -6.35563 29
    endloop
  endfacet
  facet normal -0.83147 0.55557 0
    outer loop
      vertex 25.8056 -6.35563 29
      vertex 26.2825 -5.6419 26.4
      vertex 25.8056 -6.35563 26.4
    endloop
  endfacet
  facet normal -0.55557 0.83147 0
    outer loop
      vertex 25.8056 -6.35563 29
      vertex 25.8056 -6.35563 26.4
      vertex 25.0919 -6.83253 29
    endloop
  endfacet
  facet normal -0.55557 0.83147 0
    outer loop
      vertex 25.0919 -6.83253 29
      vertex 25.8056 -6.35563 26.4
      vertex 25.0919 -6.83253 26.4
    endloop
  endfacet
  facet normal -0.19509 0.980785 0
    outer loop
      vertex 25.0919 -6.83253 29
      vertex 25.0919 -6.83253 26.4
      vertex 24.25 -7 29
    endloop
  endfacet
  facet normal -0.19509 0.980785 0
    outer loop
      vertex 24.25 -7 29
      vertex 25.0919 -6.83253 26.4
      vertex 24.25 -7 26.4
    endloop
  endfacet
  facet normal 0.19509 0.980785 -0
    outer loop
      vertex 24.25 -7 29
      vertex 24.25 -7 26.4
      vertex 23.4081 -6.83253 29
    endloop
  endfacet
  facet normal 0.19509 0.980785 -0
    outer loop
      vertex 23.4081 -6.83253 29
      vertex 24.25 -7 26.4
      vertex 23.4081 -6.83253 26.4
    endloop
  endfacet
  facet normal 0.55557 0.83147 -0
    outer loop
      vertex 23.4081 -6.83253 29
      vertex 23.4081 -6.83253 26.4
      vertex 22.6944 -6.35563 29
    endloop
  endfacet
  facet normal 0.55557 0.83147 -0
    outer loop
      vertex 22.6944 -6.35563 29
      vertex 23.4081 -6.83253 26.4
      vertex 22.6944 -6.35563 26.4
    endloop
  endfacet
  facet normal 0.83147 0.55557 0
    outer loop
      vertex 22.2175 -5.6419 29
      vertex 22.6944 -6.35563 29
      vertex 22.6944 -6.35563 26.4
    endloop
  endfacet
  facet normal 0.83147 0.55557 0
    outer loop
      vertex 22.2175 -5.6419 26.4
      vertex 22.2175 -5.6419 29
      vertex 22.6944 -6.35563 26.4
    endloop
  endfacet
  facet normal 0.980785 0.19509 0
    outer loop
      vertex 22.05 4.8 29
      vertex 22.2175 3.9581 29
      vertex 22.2175 3.9581 26.4
    endloop
  endfacet
  facet normal 0.980785 0.19509 0
    outer loop
      vertex 22.05 4.8 26.4
      vertex 22.05 4.8 29
      vertex 22.2175 3.9581 26.4
    endloop
  endfacet
  facet normal 0.980785 -0.19509 0
    outer loop
      vertex 22.2175 5.6419 26.4
      vertex 22.2175 5.6419 29
      vertex 22.05 4.8 29
    endloop
  endfacet
  facet normal 0.980785 -0.19509 0
    outer loop
      vertex 22.05 4.8 26.4
      vertex 22.2175 5.6419 26.4
      vertex 22.05 4.8 29
    endloop
  endfacet
  facet normal 0.83147 -0.55557 0
    outer loop
      vertex 22.6944 6.35563 26.4
      vertex 22.6944 6.35563 29
      vertex 22.2175 5.6419 29
    endloop
  endfacet
  facet normal 0.83147 -0.55557 0
    outer loop
      vertex 22.2175 5.6419 26.4
      vertex 22.6944 6.35563 26.4
      vertex 22.2175 5.6419 29
    endloop
  endfacet
  facet normal 0.55557 -0.83147 0
    outer loop
      vertex 23.4081 6.83253 26.4
      vertex 23.4081 6.83253 29
      vertex 22.6944 6.35563 29
    endloop
  endfacet
  facet normal 0.55557 -0.83147 0
    outer loop
      vertex 22.6944 6.35563 26.4
      vertex 23.4081 6.83253 26.4
      vertex 22.6944 6.35563 29
    endloop
  endfacet
  facet normal 0.19509 -0.980785 0
    outer loop
      vertex 24.25 7 26.4
      vertex 24.25 7 29
      vertex 23.4081 6.83253 29
    endloop
  endfacet
  facet normal 0.19509 -0.980785 0
    outer loop
      vertex 23.4081 6.83253 26.4
      vertex 24.25 7 26.4
      vertex 23.4081 6.83253 29
    endloop
  endfacet
  facet normal -0.19509 -0.980785 -0
    outer loop
      vertex 25.0919 6.83253 26.4
      vertex 25.0919 6.83253 29
      vertex 24.25 7 29
    endloop
  endfacet
  facet normal -0.19509 -0.980785 -0
    outer loop
      vertex 24.25 7 26.4
      vertex 25.0919 6.83253 26.4
      vertex 24.25 7 29
    endloop
  endfacet
  facet normal -0.55557 -0.83147 -0
    outer loop
      vertex 25.8056 6.35563 26.4
      vertex 25.8056 6.35563 29
      vertex 25.0919 6.83253 29
    endloop
  endfacet
  facet normal -0.55557 -0.83147 -0
    outer loop
      vertex 25.0919 6.83253 26.4
      vertex 25.8056 6.35563 26.4
      vertex 25.0919 6.83253 29
    endloop
  endfacet
  facet normal -0.83147 -0.55557 0
    outer loop
      vertex 26.2825 5.6419 29
      vertex 25.8056 6.35563 29
      vertex 26.2825 5.6419 26.4
    endloop
  endfacet
  facet normal -0.83147 -0.55557 0
    outer loop
      vertex 26.2825 5.6419 26.4
      vertex 25.8056 6.35563 29
      vertex 25.8056 6.35563 26.4
    endloop
  endfacet
  facet normal -0.980785 -0.19509 0
    outer loop
      vertex 26.45 4.8 29
      vertex 26.2825 5.6419 29
      vertex 26.45 4.8 26.4
    endloop
  endfacet
  facet normal -0.980785 -0.19509 0
    outer loop
      vertex 26.45 4.8 26.4
      vertex 26.2825 5.6419 29
      vertex 26.2825 5.6419 26.4
    endloop
  endfacet
  facet normal -0.980785 0.19509 0
    outer loop
      vertex 26.45 4.8 29
      vertex 26.45 4.8 26.4
      vertex 26.2825 3.9581 29
    endloop
  endfacet
  facet normal -0.980785 0.19509 0
    outer loop
      vertex 26.2825 3.9581 29
      vertex 26.45 4.8 26.4
      vertex 26.2825 3.9581 26.4
    endloop
  endfacet
  facet normal -0.83147 0.55557 0
    outer loop
      vertex 26.2825 3.9581 29
      vertex 26.2825 3.9581 26.4
      vertex 25.8056 3.24436 29
    endloop
  endfacet
  facet normal -0.83147 0.55557 0
    outer loop
      vertex 25.8056 3.24436 29
      vertex 26.2825 3.9581 26.4
      vertex 25.8056 3.24436 26.4
    endloop
  endfacet
  facet normal -0.55557 0.83147 0
    outer loop
      vertex 25.8056 3.24436 29
      vertex 25.8056 3.24436 26.4
      vertex 25.0919 2.76746 29
    endloop
  endfacet
  facet normal -0.55557 0.83147 0
    outer loop
      vertex 25.0919 2.76746 29
      vertex 25.8056 3.24436 26.4
      vertex 25.0919 2.76746 26.4
    endloop
  endfacet
  facet normal -0.19509 0.980785 0
    outer loop
      vertex 25.0919 2.76746 29
      vertex 25.0919 2.76746 26.4
      vertex 24.25 2.6 29
    endloop
  endfacet
  facet normal -0.19509 0.980785 0
    outer loop
      vertex 24.25 2.6 29
      vertex 25.0919 2.76746 26.4
      vertex 24.25 2.6 26.4
    endloop
  endfacet
  facet normal 0.19509 0.980785 -0
    outer loop
      vertex 24.25 2.6 29
      vertex 24.25 2.6 26.4
      vertex 23.4081 2.76746 29
    endloop
  endfacet
  facet normal 0.19509 0.980785 -0
    outer loop
      vertex 23.4081 2.76746 29
      vertex 24.25 2.6 26.4
      vertex 23.4081 2.76746 26.4
    endloop
  endfacet
  facet normal 0.55557 0.83147 -0
    outer loop
      vertex 23.4081 2.76746 29
      vertex 23.4081 2.76746 26.4
      vertex 22.6944 3.24436 29
    endloop
  endfacet
  facet normal 0.55557 0.83147 -0
    outer loop
      vertex 22.6944 3.24436 29
      vertex 23.4081 2.76746 26.4
      vertex 22.6944 3.24436 26.4
    endloop
  endfacet
  facet normal 0.83147 0.55557 0
    outer loop
      vertex 22.2175 3.9581 29
      vertex 22.6944 3.24436 29
      vertex 22.6944 3.24436 26.4
    endloop
  endfacet
  facet normal 0.83147 0.55557 0
    outer loop
      vertex 22.2175 3.9581 26.4
      vertex 22.2175 3.9581 29
      vertex 22.6944 3.24436 26.4
    endloop
  endfacet
endsolid OpenSCAD_Model
